<mxfile host="Electron" modified="2023-09-08T14:33:32.654Z" agent="Mozilla/5.0 (Windows NT 10.0; Win64; x64) AppleWebKit/537.36 (KHTML, like Gecko) draw.io/21.6.8 Chrome/114.0.5735.289 Electron/25.5.0 Safari/537.36" etag="nft2LLjtsrj-PZ806W1L" version="21.6.8" type="device">
  <diagram name="Page-1" id="IgCHKJWbKLz6pYfGydyy">
    <mxGraphModel dx="1823" dy="779" grid="1" gridSize="10" guides="1" tooltips="1" connect="1" arrows="1" fold="1" page="1" pageScale="1" pageWidth="850" pageHeight="1100" math="0" shadow="0">
      <root>
        <mxCell id="0" />
        <mxCell id="1" parent="0" />
        <mxCell id="YTWzxp4o3VyHmiyJ0VoJ-1" value="START" style="rounded=1;whiteSpace=wrap;html=1;" parent="1" vertex="1">
          <mxGeometry x="330" y="8" width="120" height="60" as="geometry" />
        </mxCell>
        <mxCell id="YTWzxp4o3VyHmiyJ0VoJ-2" value="" style="endArrow=classic;html=1;rounded=0;exitX=0.5;exitY=1;exitDx=0;exitDy=0;" parent="1" source="YTWzxp4o3VyHmiyJ0VoJ-14" target="YTWzxp4o3VyHmiyJ0VoJ-3" edge="1">
          <mxGeometry width="50" height="50" relative="1" as="geometry">
            <mxPoint x="400" y="340" as="sourcePoint" />
            <mxPoint x="390" y="120" as="targetPoint" />
          </mxGeometry>
        </mxCell>
        <mxCell id="YTWzxp4o3VyHmiyJ0VoJ-3" value="PRINT WELCOME MESSAGE" style="rounded=0;whiteSpace=wrap;html=1;" parent="1" vertex="1">
          <mxGeometry x="330" y="180" width="120" height="60" as="geometry" />
        </mxCell>
        <mxCell id="YTWzxp4o3VyHmiyJ0VoJ-7" value="PRINT MENU" style="rounded=0;whiteSpace=wrap;html=1;" parent="1" vertex="1">
          <mxGeometry x="330" y="270" width="120" height="60" as="geometry" />
        </mxCell>
        <mxCell id="YTWzxp4o3VyHmiyJ0VoJ-8" value="" style="endArrow=classic;html=1;rounded=0;exitX=0.5;exitY=1;exitDx=0;exitDy=0;entryX=0.5;entryY=0;entryDx=0;entryDy=0;" parent="1" source="YTWzxp4o3VyHmiyJ0VoJ-7" target="YTWzxp4o3VyHmiyJ0VoJ-9" edge="1">
          <mxGeometry width="50" height="50" relative="1" as="geometry">
            <mxPoint x="380" y="330" as="sourcePoint" />
            <mxPoint x="390" y="320" as="targetPoint" />
          </mxGeometry>
        </mxCell>
        <mxCell id="YTWzxp4o3VyHmiyJ0VoJ-13" value="" style="edgeStyle=orthogonalEdgeStyle;rounded=0;orthogonalLoop=1;jettySize=auto;html=1;" parent="1" source="YTWzxp4o3VyHmiyJ0VoJ-9" target="YTWzxp4o3VyHmiyJ0VoJ-12" edge="1">
          <mxGeometry relative="1" as="geometry" />
        </mxCell>
        <mxCell id="YTWzxp4o3VyHmiyJ0VoJ-9" value="READ USER INPUT(SELECTION)" style="shape=parallelogram;perimeter=parallelogramPerimeter;whiteSpace=wrap;html=1;fixedSize=1;" parent="1" vertex="1">
          <mxGeometry x="300" y="360" width="180" height="60" as="geometry" />
        </mxCell>
        <mxCell id="YTWzxp4o3VyHmiyJ0VoJ-12" value="While (selection is not 1, 2, or 3)" style="rhombus;whiteSpace=wrap;html=1;" parent="1" vertex="1">
          <mxGeometry x="265" y="450" width="250" height="80" as="geometry" />
        </mxCell>
        <mxCell id="YTWzxp4o3VyHmiyJ0VoJ-15" value="" style="endArrow=classic;html=1;rounded=0;exitX=0.5;exitY=1;exitDx=0;exitDy=0;" parent="1" source="YTWzxp4o3VyHmiyJ0VoJ-1" target="YTWzxp4o3VyHmiyJ0VoJ-14" edge="1">
          <mxGeometry width="50" height="50" relative="1" as="geometry">
            <mxPoint x="390" y="90" as="sourcePoint" />
            <mxPoint x="390" y="140" as="targetPoint" />
          </mxGeometry>
        </mxCell>
        <mxCell id="YTWzxp4o3VyHmiyJ0VoJ-14" value="cyanColour();" style="shape=process;whiteSpace=wrap;html=1;backgroundOutline=1;" parent="1" vertex="1">
          <mxGeometry x="330" y="100" width="120" height="60" as="geometry" />
        </mxCell>
        <mxCell id="YTWzxp4o3VyHmiyJ0VoJ-18" value="" style="endArrow=classic;html=1;rounded=0;exitX=0.5;exitY=1;exitDx=0;exitDy=0;" parent="1" source="YTWzxp4o3VyHmiyJ0VoJ-3" target="YTWzxp4o3VyHmiyJ0VoJ-7" edge="1">
          <mxGeometry width="50" height="50" relative="1" as="geometry">
            <mxPoint x="400" y="240" as="sourcePoint" />
            <mxPoint x="450" y="190" as="targetPoint" />
          </mxGeometry>
        </mxCell>
        <mxCell id="YTWzxp4o3VyHmiyJ0VoJ-21" value="" style="endArrow=classic;html=1;rounded=0;exitX=0.5;exitY=1;exitDx=0;exitDy=0;" parent="1" source="YTWzxp4o3VyHmiyJ0VoJ-12" edge="1">
          <mxGeometry width="50" height="50" relative="1" as="geometry">
            <mxPoint x="400" y="430" as="sourcePoint" />
            <mxPoint x="390" y="580" as="targetPoint" />
          </mxGeometry>
        </mxCell>
        <mxCell id="YTWzxp4o3VyHmiyJ0VoJ-28" value="" style="edgeStyle=orthogonalEdgeStyle;rounded=0;orthogonalLoop=1;jettySize=auto;html=1;" parent="1" source="YTWzxp4o3VyHmiyJ0VoJ-26" target="YTWzxp4o3VyHmiyJ0VoJ-27" edge="1">
          <mxGeometry relative="1" as="geometry" />
        </mxCell>
        <mxCell id="YTWzxp4o3VyHmiyJ0VoJ-26" value="redColour();" style="shape=process;whiteSpace=wrap;html=1;backgroundOutline=1;" parent="1" vertex="1">
          <mxGeometry x="270" y="580" width="240" height="60" as="geometry" />
        </mxCell>
        <mxCell id="YTWzxp4o3VyHmiyJ0VoJ-30" value="" style="edgeStyle=orthogonalEdgeStyle;rounded=0;orthogonalLoop=1;jettySize=auto;html=1;" parent="1" source="YTWzxp4o3VyHmiyJ0VoJ-27" target="YTWzxp4o3VyHmiyJ0VoJ-29" edge="1">
          <mxGeometry relative="1" as="geometry" />
        </mxCell>
        <mxCell id="YTWzxp4o3VyHmiyJ0VoJ-27" value="PRINT INVALID USER INPUT" style="whiteSpace=wrap;html=1;" parent="1" vertex="1">
          <mxGeometry x="330" y="680" width="120" height="60" as="geometry" />
        </mxCell>
        <mxCell id="YTWzxp4o3VyHmiyJ0VoJ-32" value="" style="edgeStyle=orthogonalEdgeStyle;rounded=0;orthogonalLoop=1;jettySize=auto;html=1;" parent="1" source="YTWzxp4o3VyHmiyJ0VoJ-29" target="YTWzxp4o3VyHmiyJ0VoJ-31" edge="1">
          <mxGeometry relative="1" as="geometry" />
        </mxCell>
        <mxCell id="YTWzxp4o3VyHmiyJ0VoJ-29" value="PRINT MENU" style="whiteSpace=wrap;html=1;" parent="1" vertex="1">
          <mxGeometry x="330" y="780" width="120" height="60" as="geometry" />
        </mxCell>
        <mxCell id="YTWzxp4o3VyHmiyJ0VoJ-34" value="" style="edgeStyle=orthogonalEdgeStyle;rounded=0;orthogonalLoop=1;jettySize=auto;html=1;" parent="1" source="YTWzxp4o3VyHmiyJ0VoJ-31" target="YTWzxp4o3VyHmiyJ0VoJ-33" edge="1">
          <mxGeometry relative="1" as="geometry" />
        </mxCell>
        <mxCell id="YTWzxp4o3VyHmiyJ0VoJ-31" value="READ USER INPUT(SELECTION)" style="whiteSpace=wrap;html=1;" parent="1" vertex="1">
          <mxGeometry x="330" y="880" width="120" height="60" as="geometry" />
        </mxCell>
        <mxCell id="YTWzxp4o3VyHmiyJ0VoJ-33" value="SELECTION=?" style="rhombus;whiteSpace=wrap;html=1;" parent="1" vertex="1">
          <mxGeometry x="320" y="970" width="140" height="80" as="geometry" />
        </mxCell>
        <mxCell id="YTWzxp4o3VyHmiyJ0VoJ-37" value="" style="endArrow=none;html=1;rounded=0;entryX=0.5;entryY=1;entryDx=0;entryDy=0;" parent="1" target="YTWzxp4o3VyHmiyJ0VoJ-33" edge="1">
          <mxGeometry width="50" height="50" relative="1" as="geometry">
            <mxPoint x="390" y="1100" as="sourcePoint" />
            <mxPoint x="450" y="1090" as="targetPoint" />
          </mxGeometry>
        </mxCell>
        <mxCell id="YTWzxp4o3VyHmiyJ0VoJ-38" value="" style="endArrow=none;html=1;rounded=0;" parent="1" edge="1">
          <mxGeometry width="50" height="50" relative="1" as="geometry">
            <mxPoint x="160" y="1100" as="sourcePoint" />
            <mxPoint x="700" y="1100" as="targetPoint" />
          </mxGeometry>
        </mxCell>
        <mxCell id="YTWzxp4o3VyHmiyJ0VoJ-39" value="" style="endArrow=none;html=1;rounded=0;" parent="1" edge="1">
          <mxGeometry width="50" height="50" relative="1" as="geometry">
            <mxPoint x="390" y="1170" as="sourcePoint" />
            <mxPoint x="390" y="1100" as="targetPoint" />
          </mxGeometry>
        </mxCell>
        <mxCell id="YTWzxp4o3VyHmiyJ0VoJ-40" value="" style="endArrow=none;html=1;rounded=0;" parent="1" edge="1">
          <mxGeometry width="50" height="50" relative="1" as="geometry">
            <mxPoint x="160" y="1170" as="sourcePoint" />
            <mxPoint x="160" y="1100" as="targetPoint" />
          </mxGeometry>
        </mxCell>
        <mxCell id="YTWzxp4o3VyHmiyJ0VoJ-41" value="" style="endArrow=none;html=1;rounded=0;" parent="1" edge="1">
          <mxGeometry width="50" height="50" relative="1" as="geometry">
            <mxPoint x="580" y="1170" as="sourcePoint" />
            <mxPoint x="580" y="1100" as="targetPoint" />
          </mxGeometry>
        </mxCell>
        <mxCell id="YTWzxp4o3VyHmiyJ0VoJ-42" value="1" style="text;html=1;align=center;verticalAlign=middle;resizable=0;points=[];autosize=1;strokeColor=none;fillColor=none;" parent="1" vertex="1">
          <mxGeometry x="135" y="1148" width="30" height="30" as="geometry" />
        </mxCell>
        <mxCell id="YTWzxp4o3VyHmiyJ0VoJ-43" value="2" style="text;html=1;align=center;verticalAlign=middle;resizable=0;points=[];autosize=1;strokeColor=none;fillColor=none;" parent="1" vertex="1">
          <mxGeometry x="355" y="1148" width="30" height="30" as="geometry" />
        </mxCell>
        <mxCell id="YTWzxp4o3VyHmiyJ0VoJ-46" value="3" style="text;html=1;align=center;verticalAlign=middle;resizable=0;points=[];autosize=1;strokeColor=none;fillColor=none;" parent="1" vertex="1">
          <mxGeometry x="545" y="1148" width="30" height="30" as="geometry" />
        </mxCell>
        <mxCell id="YTWzxp4o3VyHmiyJ0VoJ-47" value="" style="endArrow=none;html=1;rounded=0;" parent="1" edge="1">
          <mxGeometry width="50" height="50" relative="1" as="geometry">
            <mxPoint x="700" y="1170" as="sourcePoint" />
            <mxPoint x="700" y="1100" as="targetPoint" />
          </mxGeometry>
        </mxCell>
        <mxCell id="YTWzxp4o3VyHmiyJ0VoJ-49" value="default" style="text;html=1;align=center;verticalAlign=middle;resizable=0;points=[];autosize=1;strokeColor=none;fillColor=none;" parent="1" vertex="1">
          <mxGeometry x="650" y="1148" width="60" height="30" as="geometry" />
        </mxCell>
        <mxCell id="YTWzxp4o3VyHmiyJ0VoJ-55" value="" style="edgeStyle=orthogonalEdgeStyle;rounded=0;orthogonalLoop=1;jettySize=auto;html=1;" parent="1" source="YTWzxp4o3VyHmiyJ0VoJ-50" target="YTWzxp4o3VyHmiyJ0VoJ-54" edge="1">
          <mxGeometry relative="1" as="geometry" />
        </mxCell>
        <mxCell id="YTWzxp4o3VyHmiyJ0VoJ-50" value="CLEAR SCREEN" style="rounded=0;whiteSpace=wrap;html=1;" parent="1" vertex="1">
          <mxGeometry x="110" y="1170" width="120" height="60" as="geometry" />
        </mxCell>
        <mxCell id="YTWzxp4o3VyHmiyJ0VoJ-57" value="" style="edgeStyle=orthogonalEdgeStyle;rounded=0;orthogonalLoop=1;jettySize=auto;html=1;" parent="1" source="YTWzxp4o3VyHmiyJ0VoJ-51" target="YTWzxp4o3VyHmiyJ0VoJ-56" edge="1">
          <mxGeometry relative="1" as="geometry" />
        </mxCell>
        <mxCell id="YTWzxp4o3VyHmiyJ0VoJ-51" value="CLEAR SCREEN" style="rounded=0;whiteSpace=wrap;html=1;" parent="1" vertex="1">
          <mxGeometry x="320" y="1170" width="120" height="60" as="geometry" />
        </mxCell>
        <mxCell id="YTWzxp4o3VyHmiyJ0VoJ-52" value="PRINT EXIT MESSAGE" style="rounded=0;whiteSpace=wrap;html=1;" parent="1" vertex="1">
          <mxGeometry x="510" y="1170" width="120" height="60" as="geometry" />
        </mxCell>
        <mxCell id="YTWzxp4o3VyHmiyJ0VoJ-53" value="break" style="rounded=0;whiteSpace=wrap;html=1;" parent="1" vertex="1">
          <mxGeometry x="680" y="1170" width="120" height="60" as="geometry" />
        </mxCell>
        <mxCell id="YTWzxp4o3VyHmiyJ0VoJ-54" value="student();" style="shape=process;whiteSpace=wrap;html=1;backgroundOutline=1;rounded=0;" parent="1" vertex="1">
          <mxGeometry x="110" y="1260" width="120" height="60" as="geometry" />
        </mxCell>
        <mxCell id="YTWzxp4o3VyHmiyJ0VoJ-56" value="staffMenu();" style="shape=process;whiteSpace=wrap;html=1;backgroundOutline=1;rounded=0;" parent="1" vertex="1">
          <mxGeometry x="320" y="1260" width="120" height="60" as="geometry" />
        </mxCell>
        <mxCell id="YTWzxp4o3VyHmiyJ0VoJ-59" value="" style="endArrow=none;html=1;rounded=0;" parent="1" edge="1">
          <mxGeometry width="50" height="50" relative="1" as="geometry">
            <mxPoint x="580" y="1270" as="sourcePoint" />
            <mxPoint x="580" y="1230" as="targetPoint" />
          </mxGeometry>
        </mxCell>
        <mxCell id="YTWzxp4o3VyHmiyJ0VoJ-60" value="" style="endArrow=none;html=1;rounded=0;exitX=0.193;exitY=1.03;exitDx=0;exitDy=0;exitPerimeter=0;" parent="1" source="YTWzxp4o3VyHmiyJ0VoJ-53" edge="1">
          <mxGeometry width="50" height="50" relative="1" as="geometry">
            <mxPoint x="740" y="1230" as="sourcePoint" />
            <mxPoint x="703" y="1400" as="targetPoint" />
          </mxGeometry>
        </mxCell>
        <mxCell id="YTWzxp4o3VyHmiyJ0VoJ-61" value="" style="endArrow=none;html=1;rounded=0;entryX=0.5;entryY=1;entryDx=0;entryDy=0;" parent="1" target="YTWzxp4o3VyHmiyJ0VoJ-56" edge="1">
          <mxGeometry width="50" height="50" relative="1" as="geometry">
            <mxPoint x="380" y="1400" as="sourcePoint" />
            <mxPoint x="450" y="1390" as="targetPoint" />
          </mxGeometry>
        </mxCell>
        <mxCell id="YTWzxp4o3VyHmiyJ0VoJ-62" value="" style="endArrow=none;html=1;rounded=0;entryX=0.5;entryY=1;entryDx=0;entryDy=0;" parent="1" target="YTWzxp4o3VyHmiyJ0VoJ-54" edge="1">
          <mxGeometry width="50" height="50" relative="1" as="geometry">
            <mxPoint x="170" y="1400" as="sourcePoint" />
            <mxPoint x="450" y="1290" as="targetPoint" />
          </mxGeometry>
        </mxCell>
        <mxCell id="YTWzxp4o3VyHmiyJ0VoJ-63" value="" style="endArrow=none;html=1;rounded=0;" parent="1" edge="1">
          <mxGeometry width="50" height="50" relative="1" as="geometry">
            <mxPoint x="170" y="1400" as="sourcePoint" />
            <mxPoint x="700" y="1400" as="targetPoint" />
          </mxGeometry>
        </mxCell>
        <mxCell id="YTWzxp4o3VyHmiyJ0VoJ-65" value="" style="endArrow=classic;html=1;rounded=0;" parent="1" edge="1">
          <mxGeometry width="50" height="50" relative="1" as="geometry">
            <mxPoint x="430" y="1400" as="sourcePoint" />
            <mxPoint x="430" y="1480" as="targetPoint" />
          </mxGeometry>
        </mxCell>
        <mxCell id="YTWzxp4o3VyHmiyJ0VoJ-67" value="" style="endArrow=none;html=1;rounded=0;" parent="1" edge="1">
          <mxGeometry width="50" height="50" relative="1" as="geometry">
            <mxPoint x="580" y="1400" as="sourcePoint" />
            <mxPoint x="580" y="1330" as="targetPoint" />
          </mxGeometry>
        </mxCell>
        <mxCell id="YTWzxp4o3VyHmiyJ0VoJ-66" value="END" style="rounded=1;whiteSpace=wrap;html=1;" parent="1" vertex="1">
          <mxGeometry x="515" y="1270" width="120" height="60" as="geometry" />
        </mxCell>
        <mxCell id="YTWzxp4o3VyHmiyJ0VoJ-69" value="END OF FIRST LOOP" style="rounded=0;whiteSpace=wrap;html=1;" parent="1" vertex="1">
          <mxGeometry x="370" y="1480" width="120" height="60" as="geometry" />
        </mxCell>
        <mxCell id="YTWzxp4o3VyHmiyJ0VoJ-70" value="VOID MAIN" style="text;html=1;align=center;verticalAlign=middle;resizable=0;points=[];autosize=1;strokeColor=none;fillColor=none;" parent="1" vertex="1">
          <mxGeometry x="75" y="38" width="90" height="30" as="geometry" />
        </mxCell>
        <mxCell id="YTWzxp4o3VyHmiyJ0VoJ-72" value="COLOR FUNCTION" style="text;html=1;align=center;verticalAlign=middle;resizable=0;points=[];autosize=1;strokeColor=none;fillColor=none;" parent="1" vertex="1">
          <mxGeometry x="175" y="1608" width="130" height="30" as="geometry" />
        </mxCell>
        <mxCell id="YTWzxp4o3VyHmiyJ0VoJ-80" value="" style="edgeStyle=orthogonalEdgeStyle;rounded=0;orthogonalLoop=1;jettySize=auto;html=1;" parent="1" source="YTWzxp4o3VyHmiyJ0VoJ-76" target="YTWzxp4o3VyHmiyJ0VoJ-81" edge="1">
          <mxGeometry relative="1" as="geometry">
            <mxPoint x="430" y="1750" as="targetPoint" />
          </mxGeometry>
        </mxCell>
        <mxCell id="YTWzxp4o3VyHmiyJ0VoJ-76" value="START" style="rounded=1;whiteSpace=wrap;html=1;" parent="1" vertex="1">
          <mxGeometry x="370" y="1650" width="120" height="60" as="geometry" />
        </mxCell>
        <mxCell id="YTWzxp4o3VyHmiyJ0VoJ-85" value="" style="edgeStyle=orthogonalEdgeStyle;rounded=0;orthogonalLoop=1;jettySize=auto;html=1;" parent="1" source="YTWzxp4o3VyHmiyJ0VoJ-81" target="YTWzxp4o3VyHmiyJ0VoJ-84" edge="1">
          <mxGeometry relative="1" as="geometry" />
        </mxCell>
        <mxCell id="YTWzxp4o3VyHmiyJ0VoJ-81" value="PRINT PURPLE TEXT" style="rounded=0;whiteSpace=wrap;html=1;" parent="1" vertex="1">
          <mxGeometry x="370.0000000000002" y="1740" width="120" height="60" as="geometry" />
        </mxCell>
        <mxCell id="YTWzxp4o3VyHmiyJ0VoJ-84" value="END" style="rounded=1;whiteSpace=wrap;html=1;" parent="1" vertex="1">
          <mxGeometry x="370" y="1830" width="120" height="60" as="geometry" />
        </mxCell>
        <mxCell id="YTWzxp4o3VyHmiyJ0VoJ-86" value="" style="edgeStyle=orthogonalEdgeStyle;rounded=0;orthogonalLoop=1;jettySize=auto;html=1;" parent="1" source="YTWzxp4o3VyHmiyJ0VoJ-87" target="YTWzxp4o3VyHmiyJ0VoJ-89" edge="1">
          <mxGeometry relative="1" as="geometry">
            <mxPoint x="440" y="2060" as="targetPoint" />
          </mxGeometry>
        </mxCell>
        <mxCell id="YTWzxp4o3VyHmiyJ0VoJ-87" value="START" style="rounded=1;whiteSpace=wrap;html=1;" parent="1" vertex="1">
          <mxGeometry x="380" y="1960" width="120" height="60" as="geometry" />
        </mxCell>
        <mxCell id="YTWzxp4o3VyHmiyJ0VoJ-88" value="" style="edgeStyle=orthogonalEdgeStyle;rounded=0;orthogonalLoop=1;jettySize=auto;html=1;" parent="1" source="YTWzxp4o3VyHmiyJ0VoJ-89" target="YTWzxp4o3VyHmiyJ0VoJ-90" edge="1">
          <mxGeometry relative="1" as="geometry" />
        </mxCell>
        <mxCell id="YTWzxp4o3VyHmiyJ0VoJ-89" value="PRINT BLACK TEXT" style="rounded=0;whiteSpace=wrap;html=1;" parent="1" vertex="1">
          <mxGeometry x="380.0000000000002" y="2050" width="120" height="60" as="geometry" />
        </mxCell>
        <mxCell id="YTWzxp4o3VyHmiyJ0VoJ-90" value="END" style="rounded=1;whiteSpace=wrap;html=1;" parent="1" vertex="1">
          <mxGeometry x="380" y="2140" width="120" height="60" as="geometry" />
        </mxCell>
        <mxCell id="YTWzxp4o3VyHmiyJ0VoJ-91" value="" style="edgeStyle=orthogonalEdgeStyle;rounded=0;orthogonalLoop=1;jettySize=auto;html=1;" parent="1" source="YTWzxp4o3VyHmiyJ0VoJ-92" target="YTWzxp4o3VyHmiyJ0VoJ-94" edge="1">
          <mxGeometry relative="1" as="geometry">
            <mxPoint x="445" y="2370" as="targetPoint" />
          </mxGeometry>
        </mxCell>
        <mxCell id="YTWzxp4o3VyHmiyJ0VoJ-92" value="START" style="rounded=1;whiteSpace=wrap;html=1;" parent="1" vertex="1">
          <mxGeometry x="385" y="2270" width="120" height="60" as="geometry" />
        </mxCell>
        <mxCell id="YTWzxp4o3VyHmiyJ0VoJ-93" value="" style="edgeStyle=orthogonalEdgeStyle;rounded=0;orthogonalLoop=1;jettySize=auto;html=1;" parent="1" source="YTWzxp4o3VyHmiyJ0VoJ-94" target="YTWzxp4o3VyHmiyJ0VoJ-95" edge="1">
          <mxGeometry relative="1" as="geometry" />
        </mxCell>
        <mxCell id="YTWzxp4o3VyHmiyJ0VoJ-94" value="PRINT CYAN TEXT" style="rounded=0;whiteSpace=wrap;html=1;" parent="1" vertex="1">
          <mxGeometry x="385.0000000000002" y="2360" width="120" height="60" as="geometry" />
        </mxCell>
        <mxCell id="YTWzxp4o3VyHmiyJ0VoJ-95" value="END" style="rounded=1;whiteSpace=wrap;html=1;" parent="1" vertex="1">
          <mxGeometry x="385" y="2450" width="120" height="60" as="geometry" />
        </mxCell>
        <mxCell id="YTWzxp4o3VyHmiyJ0VoJ-96" value="" style="edgeStyle=orthogonalEdgeStyle;rounded=0;orthogonalLoop=1;jettySize=auto;html=1;" parent="1" source="YTWzxp4o3VyHmiyJ0VoJ-97" target="YTWzxp4o3VyHmiyJ0VoJ-99" edge="1">
          <mxGeometry relative="1" as="geometry">
            <mxPoint x="450" y="2670" as="targetPoint" />
          </mxGeometry>
        </mxCell>
        <mxCell id="YTWzxp4o3VyHmiyJ0VoJ-97" value="START" style="rounded=1;whiteSpace=wrap;html=1;" parent="1" vertex="1">
          <mxGeometry x="390" y="2570" width="120" height="60" as="geometry" />
        </mxCell>
        <mxCell id="YTWzxp4o3VyHmiyJ0VoJ-98" value="" style="edgeStyle=orthogonalEdgeStyle;rounded=0;orthogonalLoop=1;jettySize=auto;html=1;" parent="1" source="YTWzxp4o3VyHmiyJ0VoJ-99" target="YTWzxp4o3VyHmiyJ0VoJ-100" edge="1">
          <mxGeometry relative="1" as="geometry" />
        </mxCell>
        <mxCell id="YTWzxp4o3VyHmiyJ0VoJ-99" value="PRINT RED TEXT" style="rounded=0;whiteSpace=wrap;html=1;" parent="1" vertex="1">
          <mxGeometry x="390.0000000000002" y="2660" width="120" height="60" as="geometry" />
        </mxCell>
        <mxCell id="YTWzxp4o3VyHmiyJ0VoJ-100" value="END" style="rounded=1;whiteSpace=wrap;html=1;" parent="1" vertex="1">
          <mxGeometry x="390" y="2750" width="120" height="60" as="geometry" />
        </mxCell>
        <mxCell id="YTWzxp4o3VyHmiyJ0VoJ-102" value="" style="edgeStyle=orthogonalEdgeStyle;rounded=0;orthogonalLoop=1;jettySize=auto;html=1;" parent="1" source="YTWzxp4o3VyHmiyJ0VoJ-103" target="YTWzxp4o3VyHmiyJ0VoJ-105" edge="1">
          <mxGeometry relative="1" as="geometry">
            <mxPoint x="455" y="2960" as="targetPoint" />
          </mxGeometry>
        </mxCell>
        <mxCell id="YTWzxp4o3VyHmiyJ0VoJ-103" value="START" style="rounded=1;whiteSpace=wrap;html=1;" parent="1" vertex="1">
          <mxGeometry x="395" y="2860" width="120" height="60" as="geometry" />
        </mxCell>
        <mxCell id="YTWzxp4o3VyHmiyJ0VoJ-104" value="" style="edgeStyle=orthogonalEdgeStyle;rounded=0;orthogonalLoop=1;jettySize=auto;html=1;" parent="1" source="YTWzxp4o3VyHmiyJ0VoJ-105" target="YTWzxp4o3VyHmiyJ0VoJ-106" edge="1">
          <mxGeometry relative="1" as="geometry" />
        </mxCell>
        <mxCell id="YTWzxp4o3VyHmiyJ0VoJ-105" value="PRINT GREEN TEXT" style="rounded=0;whiteSpace=wrap;html=1;" parent="1" vertex="1">
          <mxGeometry x="395.0000000000002" y="2950" width="120" height="60" as="geometry" />
        </mxCell>
        <mxCell id="YTWzxp4o3VyHmiyJ0VoJ-106" value="END" style="rounded=1;whiteSpace=wrap;html=1;" parent="1" vertex="1">
          <mxGeometry x="395" y="3040" width="120" height="60" as="geometry" />
        </mxCell>
        <mxCell id="YTWzxp4o3VyHmiyJ0VoJ-107" value="" style="edgeStyle=orthogonalEdgeStyle;rounded=0;orthogonalLoop=1;jettySize=auto;html=1;" parent="1" source="YTWzxp4o3VyHmiyJ0VoJ-108" target="YTWzxp4o3VyHmiyJ0VoJ-110" edge="1">
          <mxGeometry relative="1" as="geometry">
            <mxPoint x="460" y="3260" as="targetPoint" />
          </mxGeometry>
        </mxCell>
        <mxCell id="YTWzxp4o3VyHmiyJ0VoJ-108" value="START" style="rounded=1;whiteSpace=wrap;html=1;" parent="1" vertex="1">
          <mxGeometry x="400" y="3160" width="120" height="60" as="geometry" />
        </mxCell>
        <mxCell id="YTWzxp4o3VyHmiyJ0VoJ-109" value="" style="edgeStyle=orthogonalEdgeStyle;rounded=0;orthogonalLoop=1;jettySize=auto;html=1;" parent="1" source="YTWzxp4o3VyHmiyJ0VoJ-110" target="YTWzxp4o3VyHmiyJ0VoJ-111" edge="1">
          <mxGeometry relative="1" as="geometry" />
        </mxCell>
        <mxCell id="YTWzxp4o3VyHmiyJ0VoJ-110" value="PRINTF WHITE TEXT" style="rounded=0;whiteSpace=wrap;html=1;" parent="1" vertex="1">
          <mxGeometry x="400.0000000000002" y="3250" width="120" height="60" as="geometry" />
        </mxCell>
        <mxCell id="YTWzxp4o3VyHmiyJ0VoJ-111" value="END" style="rounded=1;whiteSpace=wrap;html=1;" parent="1" vertex="1">
          <mxGeometry x="400" y="3340" width="120" height="60" as="geometry" />
        </mxCell>
        <mxCell id="YTWzxp4o3VyHmiyJ0VoJ-112" value="void staffMenu();" style="text;html=1;align=center;verticalAlign=middle;resizable=0;points=[];autosize=1;strokeColor=none;fillColor=none;" parent="1" vertex="1">
          <mxGeometry x="185" y="3448" width="110" height="30" as="geometry" />
        </mxCell>
        <mxCell id="YTWzxp4o3VyHmiyJ0VoJ-115" value="" style="edgeStyle=orthogonalEdgeStyle;rounded=0;orthogonalLoop=1;jettySize=auto;html=1;" parent="1" source="YTWzxp4o3VyHmiyJ0VoJ-113" target="YTWzxp4o3VyHmiyJ0VoJ-114" edge="1">
          <mxGeometry relative="1" as="geometry" />
        </mxCell>
        <mxCell id="YTWzxp4o3VyHmiyJ0VoJ-113" value="START" style="rounded=1;whiteSpace=wrap;html=1;" parent="1" vertex="1">
          <mxGeometry x="400" y="3530" width="120" height="60" as="geometry" />
        </mxCell>
        <mxCell id="YTWzxp4o3VyHmiyJ0VoJ-117" value="" style="edgeStyle=orthogonalEdgeStyle;rounded=0;orthogonalLoop=1;jettySize=auto;html=1;" parent="1" source="YTWzxp4o3VyHmiyJ0VoJ-114" target="YTWzxp4o3VyHmiyJ0VoJ-116" edge="1">
          <mxGeometry relative="1" as="geometry" />
        </mxCell>
        <mxCell id="YTWzxp4o3VyHmiyJ0VoJ-114" value="cyanColour();" style="shape=process;whiteSpace=wrap;html=1;backgroundOutline=1;rounded=1;" parent="1" vertex="1">
          <mxGeometry x="400" y="3630" width="120" height="60" as="geometry" />
        </mxCell>
        <mxCell id="YTWzxp4o3VyHmiyJ0VoJ-119" value="" style="edgeStyle=orthogonalEdgeStyle;rounded=0;orthogonalLoop=1;jettySize=auto;html=1;" parent="1" source="YTWzxp4o3VyHmiyJ0VoJ-116" target="YTWzxp4o3VyHmiyJ0VoJ-118" edge="1">
          <mxGeometry relative="1" as="geometry" />
        </mxCell>
        <mxCell id="YTWzxp4o3VyHmiyJ0VoJ-116" value="PRINT WELCOME SECTION" style="whiteSpace=wrap;html=1;rounded=1;" parent="1" vertex="1">
          <mxGeometry x="400" y="3730" width="120" height="60" as="geometry" />
        </mxCell>
        <mxCell id="YTWzxp4o3VyHmiyJ0VoJ-121" value="" style="edgeStyle=orthogonalEdgeStyle;rounded=0;orthogonalLoop=1;jettySize=auto;html=1;" parent="1" source="YTWzxp4o3VyHmiyJ0VoJ-118" target="YTWzxp4o3VyHmiyJ0VoJ-120" edge="1">
          <mxGeometry relative="1" as="geometry" />
        </mxCell>
        <mxCell id="YTWzxp4o3VyHmiyJ0VoJ-118" value="whiteColour();" style="shape=process;whiteSpace=wrap;html=1;backgroundOutline=1;rounded=1;" parent="1" vertex="1">
          <mxGeometry x="400" y="3830" width="120" height="60" as="geometry" />
        </mxCell>
        <mxCell id="YTWzxp4o3VyHmiyJ0VoJ-123" value="" style="edgeStyle=orthogonalEdgeStyle;rounded=0;orthogonalLoop=1;jettySize=auto;html=1;" parent="1" source="YTWzxp4o3VyHmiyJ0VoJ-120" target="YTWzxp4o3VyHmiyJ0VoJ-122" edge="1">
          <mxGeometry relative="1" as="geometry" />
        </mxCell>
        <mxCell id="YTWzxp4o3VyHmiyJ0VoJ-120" value="READ USER INPUT" style="whiteSpace=wrap;html=1;rounded=1;" parent="1" vertex="1">
          <mxGeometry x="400" y="3920" width="120" height="60" as="geometry" />
        </mxCell>
        <mxCell id="YTWzxp4o3VyHmiyJ0VoJ-125" value="" style="edgeStyle=orthogonalEdgeStyle;rounded=0;orthogonalLoop=1;jettySize=auto;html=1;" parent="1" source="YTWzxp4o3VyHmiyJ0VoJ-122" edge="1">
          <mxGeometry relative="1" as="geometry">
            <mxPoint x="460" y="4140" as="targetPoint" />
          </mxGeometry>
        </mxCell>
        <mxCell id="YTWzxp4o3VyHmiyJ0VoJ-122" value="greenColour();" style="shape=process;whiteSpace=wrap;html=1;backgroundOutline=1;rounded=1;" parent="1" vertex="1">
          <mxGeometry x="400" y="4010" width="120" height="60" as="geometry" />
        </mxCell>
        <mxCell id="YTWzxp4o3VyHmiyJ0VoJ-130" value="" style="edgeStyle=orthogonalEdgeStyle;rounded=0;orthogonalLoop=1;jettySize=auto;html=1;" parent="1" source="YTWzxp4o3VyHmiyJ0VoJ-126" target="YTWzxp4o3VyHmiyJ0VoJ-129" edge="1">
          <mxGeometry relative="1" as="geometry" />
        </mxCell>
        <mxCell id="YTWzxp4o3VyHmiyJ0VoJ-126" value="While (selection is not 1, 2, or 3)" style="rhombus;whiteSpace=wrap;html=1;" parent="1" vertex="1">
          <mxGeometry x="335" y="4140" width="250" height="80" as="geometry" />
        </mxCell>
        <mxCell id="YTWzxp4o3VyHmiyJ0VoJ-132" value="" style="edgeStyle=orthogonalEdgeStyle;rounded=0;orthogonalLoop=1;jettySize=auto;html=1;" parent="1" source="YTWzxp4o3VyHmiyJ0VoJ-129" target="YTWzxp4o3VyHmiyJ0VoJ-131" edge="1">
          <mxGeometry relative="1" as="geometry" />
        </mxCell>
        <mxCell id="YTWzxp4o3VyHmiyJ0VoJ-129" value="redColour();" style="shape=process;whiteSpace=wrap;html=1;backgroundOutline=1;" parent="1" vertex="1">
          <mxGeometry x="400" y="4260" width="120" height="60" as="geometry" />
        </mxCell>
        <mxCell id="YTWzxp4o3VyHmiyJ0VoJ-134" value="" style="edgeStyle=orthogonalEdgeStyle;rounded=0;orthogonalLoop=1;jettySize=auto;html=1;" parent="1" source="YTWzxp4o3VyHmiyJ0VoJ-131" target="YTWzxp4o3VyHmiyJ0VoJ-133" edge="1">
          <mxGeometry relative="1" as="geometry" />
        </mxCell>
        <mxCell id="YTWzxp4o3VyHmiyJ0VoJ-131" value="PRINT INVALID INPUT MESSAGE" style="whiteSpace=wrap;html=1;" parent="1" vertex="1">
          <mxGeometry x="400" y="4360" width="120" height="60" as="geometry" />
        </mxCell>
        <mxCell id="YTWzxp4o3VyHmiyJ0VoJ-136" value="" style="edgeStyle=orthogonalEdgeStyle;rounded=0;orthogonalLoop=1;jettySize=auto;html=1;" parent="1" source="YTWzxp4o3VyHmiyJ0VoJ-133" target="YTWzxp4o3VyHmiyJ0VoJ-135" edge="1">
          <mxGeometry relative="1" as="geometry" />
        </mxCell>
        <mxCell id="YTWzxp4o3VyHmiyJ0VoJ-133" value="PRINT MENU" style="whiteSpace=wrap;html=1;" parent="1" vertex="1">
          <mxGeometry x="400" y="4450" width="120" height="60" as="geometry" />
        </mxCell>
        <mxCell id="YTWzxp4o3VyHmiyJ0VoJ-138" value="" style="edgeStyle=orthogonalEdgeStyle;rounded=0;orthogonalLoop=1;jettySize=auto;html=1;" parent="1" source="YTWzxp4o3VyHmiyJ0VoJ-135" target="YTWzxp4o3VyHmiyJ0VoJ-137" edge="1">
          <mxGeometry relative="1" as="geometry" />
        </mxCell>
        <mxCell id="YTWzxp4o3VyHmiyJ0VoJ-135" value="READ USER INPUT(OPTION)" style="whiteSpace=wrap;html=1;" parent="1" vertex="1">
          <mxGeometry x="400" y="4540" width="120" height="60" as="geometry" />
        </mxCell>
        <mxCell id="YTWzxp4o3VyHmiyJ0VoJ-137" value="OPTION=?" style="rhombus;whiteSpace=wrap;html=1;" parent="1" vertex="1">
          <mxGeometry x="340" y="4670" width="240" height="120" as="geometry" />
        </mxCell>
        <mxCell id="YTWzxp4o3VyHmiyJ0VoJ-139" value="" style="endArrow=none;html=1;rounded=0;entryX=0.5;entryY=1;entryDx=0;entryDy=0;" parent="1" target="YTWzxp4o3VyHmiyJ0VoJ-137" edge="1">
          <mxGeometry width="50" height="50" relative="1" as="geometry">
            <mxPoint x="460" y="4880" as="sourcePoint" />
            <mxPoint x="320" y="4920" as="targetPoint" />
          </mxGeometry>
        </mxCell>
        <mxCell id="YTWzxp4o3VyHmiyJ0VoJ-140" value="" style="endArrow=none;html=1;rounded=0;" parent="1" edge="1">
          <mxGeometry width="50" height="50" relative="1" as="geometry">
            <mxPoint x="240" y="4880" as="sourcePoint" />
            <mxPoint x="680" y="4880" as="targetPoint" />
          </mxGeometry>
        </mxCell>
        <mxCell id="YTWzxp4o3VyHmiyJ0VoJ-141" value="" style="endArrow=none;html=1;rounded=0;" parent="1" edge="1">
          <mxGeometry width="50" height="50" relative="1" as="geometry">
            <mxPoint x="240" y="5000" as="sourcePoint" />
            <mxPoint x="240" y="4880" as="targetPoint" />
          </mxGeometry>
        </mxCell>
        <mxCell id="YTWzxp4o3VyHmiyJ0VoJ-142" value="" style="endArrow=none;html=1;rounded=0;" parent="1" edge="1">
          <mxGeometry width="50" height="50" relative="1" as="geometry">
            <mxPoint x="460" y="5000" as="sourcePoint" />
            <mxPoint x="460" y="4860" as="targetPoint" />
          </mxGeometry>
        </mxCell>
        <mxCell id="YTWzxp4o3VyHmiyJ0VoJ-143" value="" style="endArrow=none;html=1;rounded=0;" parent="1" edge="1">
          <mxGeometry width="50" height="50" relative="1" as="geometry">
            <mxPoint x="680" y="5000" as="sourcePoint" />
            <mxPoint x="680" y="4880" as="targetPoint" />
          </mxGeometry>
        </mxCell>
        <mxCell id="YTWzxp4o3VyHmiyJ0VoJ-146" value="" style="edgeStyle=orthogonalEdgeStyle;rounded=0;orthogonalLoop=1;jettySize=auto;html=1;" parent="1" source="YTWzxp4o3VyHmiyJ0VoJ-144" target="YTWzxp4o3VyHmiyJ0VoJ-145" edge="1">
          <mxGeometry relative="1" as="geometry" />
        </mxCell>
        <mxCell id="YTWzxp4o3VyHmiyJ0VoJ-144" value="CLEAR SCREEN" style="rounded=0;whiteSpace=wrap;html=1;" parent="1" vertex="1">
          <mxGeometry x="175" y="5000" width="120" height="60" as="geometry" />
        </mxCell>
        <mxCell id="YTWzxp4o3VyHmiyJ0VoJ-145" value="staffs();" style="shape=process;whiteSpace=wrap;html=1;backgroundOutline=1;rounded=0;" parent="1" vertex="1">
          <mxGeometry x="175" y="5110" width="120" height="60" as="geometry" />
        </mxCell>
        <mxCell id="YTWzxp4o3VyHmiyJ0VoJ-148" value="1" style="text;html=1;align=center;verticalAlign=middle;resizable=0;points=[];autosize=1;strokeColor=none;fillColor=none;" parent="1" vertex="1">
          <mxGeometry x="165" y="4948" width="30" height="30" as="geometry" />
        </mxCell>
        <mxCell id="YTWzxp4o3VyHmiyJ0VoJ-149" value="2" style="text;html=1;align=center;verticalAlign=middle;resizable=0;points=[];autosize=1;strokeColor=none;fillColor=none;" parent="1" vertex="1">
          <mxGeometry x="395" y="4958" width="30" height="30" as="geometry" />
        </mxCell>
        <mxCell id="YTWzxp4o3VyHmiyJ0VoJ-150" value="3" style="text;html=1;align=center;verticalAlign=middle;resizable=0;points=[];autosize=1;strokeColor=none;fillColor=none;" parent="1" vertex="1">
          <mxGeometry x="625" y="4968" width="30" height="30" as="geometry" />
        </mxCell>
        <mxCell id="YTWzxp4o3VyHmiyJ0VoJ-154" value="" style="edgeStyle=orthogonalEdgeStyle;rounded=0;orthogonalLoop=1;jettySize=auto;html=1;" parent="1" source="YTWzxp4o3VyHmiyJ0VoJ-151" target="YTWzxp4o3VyHmiyJ0VoJ-153" edge="1">
          <mxGeometry relative="1" as="geometry" />
        </mxCell>
        <mxCell id="YTWzxp4o3VyHmiyJ0VoJ-151" value="CLEAR SCREEN" style="rounded=0;whiteSpace=wrap;html=1;" parent="1" vertex="1">
          <mxGeometry x="400" y="5000" width="120" height="60" as="geometry" />
        </mxCell>
        <mxCell id="YTWzxp4o3VyHmiyJ0VoJ-156" value="" style="edgeStyle=orthogonalEdgeStyle;rounded=0;orthogonalLoop=1;jettySize=auto;html=1;" parent="1" source="YTWzxp4o3VyHmiyJ0VoJ-152" edge="1">
          <mxGeometry relative="1" as="geometry">
            <mxPoint x="680" y="5110" as="targetPoint" />
          </mxGeometry>
        </mxCell>
        <mxCell id="YTWzxp4o3VyHmiyJ0VoJ-158" value="" style="edgeStyle=orthogonalEdgeStyle;rounded=0;orthogonalLoop=1;jettySize=auto;html=1;" parent="1" source="YTWzxp4o3VyHmiyJ0VoJ-152" target="YTWzxp4o3VyHmiyJ0VoJ-157" edge="1">
          <mxGeometry relative="1" as="geometry" />
        </mxCell>
        <mxCell id="YTWzxp4o3VyHmiyJ0VoJ-152" value="CLEAR SCREEN" style="rounded=0;whiteSpace=wrap;html=1;" parent="1" vertex="1">
          <mxGeometry x="620" y="5000" width="120" height="60" as="geometry" />
        </mxCell>
        <mxCell id="YTWzxp4o3VyHmiyJ0VoJ-153" value="addSemester();" style="shape=process;whiteSpace=wrap;html=1;backgroundOutline=1;rounded=0;" parent="1" vertex="1">
          <mxGeometry x="400" y="5110" width="120" height="60" as="geometry" />
        </mxCell>
        <mxCell id="YTWzxp4o3VyHmiyJ0VoJ-157" value="EXIT BACK TO MENU" style="whiteSpace=wrap;html=1;rounded=0;" parent="1" vertex="1">
          <mxGeometry x="620" y="5110" width="120" height="60" as="geometry" />
        </mxCell>
        <mxCell id="YTWzxp4o3VyHmiyJ0VoJ-159" value="" style="endArrow=none;html=1;rounded=0;exitX=0.5;exitY=1;exitDx=0;exitDy=0;" parent="1" source="YTWzxp4o3VyHmiyJ0VoJ-145" edge="1">
          <mxGeometry width="50" height="50" relative="1" as="geometry">
            <mxPoint x="270" y="5130" as="sourcePoint" />
            <mxPoint x="235" y="5230" as="targetPoint" />
          </mxGeometry>
        </mxCell>
        <mxCell id="YTWzxp4o3VyHmiyJ0VoJ-160" value="" style="endArrow=none;html=1;rounded=0;" parent="1" edge="1">
          <mxGeometry width="50" height="50" relative="1" as="geometry">
            <mxPoint x="230" y="5230" as="sourcePoint" />
            <mxPoint x="680" y="5230" as="targetPoint" />
          </mxGeometry>
        </mxCell>
        <mxCell id="YTWzxp4o3VyHmiyJ0VoJ-161" value="" style="endArrow=none;html=1;rounded=0;entryX=0.5;entryY=1;entryDx=0;entryDy=0;" parent="1" target="YTWzxp4o3VyHmiyJ0VoJ-153" edge="1">
          <mxGeometry width="50" height="50" relative="1" as="geometry">
            <mxPoint x="460" y="5240" as="sourcePoint" />
            <mxPoint x="320" y="5080" as="targetPoint" />
          </mxGeometry>
        </mxCell>
        <mxCell id="YTWzxp4o3VyHmiyJ0VoJ-162" value="" style="endArrow=none;html=1;rounded=0;entryX=0.5;entryY=1;entryDx=0;entryDy=0;" parent="1" target="YTWzxp4o3VyHmiyJ0VoJ-157" edge="1">
          <mxGeometry width="50" height="50" relative="1" as="geometry">
            <mxPoint x="680" y="5230" as="sourcePoint" />
            <mxPoint x="320" y="5080" as="targetPoint" />
          </mxGeometry>
        </mxCell>
        <mxCell id="YTWzxp4o3VyHmiyJ0VoJ-163" value="" style="endArrow=classic;html=1;rounded=0;" parent="1" edge="1">
          <mxGeometry width="50" height="50" relative="1" as="geometry">
            <mxPoint x="460" y="5240" as="sourcePoint" />
            <mxPoint x="460" y="5320" as="targetPoint" />
          </mxGeometry>
        </mxCell>
        <mxCell id="YTWzxp4o3VyHmiyJ0VoJ-165" value="END OF THE MAIN LOOP" style="rounded=1;whiteSpace=wrap;html=1;" parent="1" vertex="1">
          <mxGeometry x="400" y="5320" width="120" height="60" as="geometry" />
        </mxCell>
        <mxCell id="J5OSdTNFuyauDJrTHD43-1" value="" style="endArrow=none;html=1;rounded=0;" parent="1" edge="1">
          <mxGeometry width="50" height="50" relative="1" as="geometry">
            <mxPoint x="40" y="13750" as="sourcePoint" />
            <mxPoint x="15.045072115384528" y="5445" as="targetPoint" />
          </mxGeometry>
        </mxCell>
        <mxCell id="J5OSdTNFuyauDJrTHD43-3" value="VOID&amp;nbsp; STAFF MENU" style="text;html=1;strokeColor=none;fillColor=none;align=center;verticalAlign=middle;whiteSpace=wrap;rounded=0;" parent="1" vertex="1">
          <mxGeometry x="115" y="5490" width="60" height="30" as="geometry" />
        </mxCell>
        <mxCell id="J5OSdTNFuyauDJrTHD43-7" value="" style="edgeStyle=orthogonalEdgeStyle;rounded=0;orthogonalLoop=1;jettySize=auto;html=1;" parent="1" source="J5OSdTNFuyauDJrTHD43-4" target="J5OSdTNFuyauDJrTHD43-6" edge="1">
          <mxGeometry relative="1" as="geometry" />
        </mxCell>
        <mxCell id="J5OSdTNFuyauDJrTHD43-4" value="START" style="rounded=1;whiteSpace=wrap;html=1;" parent="1" vertex="1">
          <mxGeometry x="360" y="13800" width="120" height="60" as="geometry" />
        </mxCell>
        <mxCell id="J5OSdTNFuyauDJrTHD43-5" value="void student()" style="text;html=1;strokeColor=none;fillColor=none;align=center;verticalAlign=middle;whiteSpace=wrap;rounded=0;" parent="1" vertex="1">
          <mxGeometry x="260" y="13800" width="60" height="30" as="geometry" />
        </mxCell>
        <mxCell id="J5OSdTNFuyauDJrTHD43-9" value="" style="edgeStyle=orthogonalEdgeStyle;rounded=0;orthogonalLoop=1;jettySize=auto;html=1;" parent="1" source="J5OSdTNFuyauDJrTHD43-6" target="J5OSdTNFuyauDJrTHD43-8" edge="1">
          <mxGeometry relative="1" as="geometry" />
        </mxCell>
        <mxCell id="J5OSdTNFuyauDJrTHD43-6" value="cyanColour();" style="shape=process;whiteSpace=wrap;html=1;backgroundOutline=1;rounded=1;" parent="1" vertex="1">
          <mxGeometry x="360" y="13940" width="120" height="60" as="geometry" />
        </mxCell>
        <mxCell id="J5OSdTNFuyauDJrTHD43-11" value="" style="edgeStyle=orthogonalEdgeStyle;rounded=0;orthogonalLoop=1;jettySize=auto;html=1;" parent="1" source="J5OSdTNFuyauDJrTHD43-8" target="J5OSdTNFuyauDJrTHD43-10" edge="1">
          <mxGeometry relative="1" as="geometry" />
        </mxCell>
        <mxCell id="J5OSdTNFuyauDJrTHD43-8" value="PRINT MENU" style="whiteSpace=wrap;html=1;rounded=1;" parent="1" vertex="1">
          <mxGeometry x="360" y="14060" width="120" height="60" as="geometry" />
        </mxCell>
        <mxCell id="J5OSdTNFuyauDJrTHD43-13" value="" style="edgeStyle=orthogonalEdgeStyle;rounded=0;orthogonalLoop=1;jettySize=auto;html=1;" parent="1" source="J5OSdTNFuyauDJrTHD43-10" target="J5OSdTNFuyauDJrTHD43-12" edge="1">
          <mxGeometry relative="1" as="geometry" />
        </mxCell>
        <mxCell id="J5OSdTNFuyauDJrTHD43-10" value="whiteColour();&lt;span style=&quot;&quot;&gt;&lt;/span&gt;" style="shape=process;whiteSpace=wrap;html=1;backgroundOutline=1;rounded=1;" parent="1" vertex="1">
          <mxGeometry x="360" y="14180" width="120" height="60" as="geometry" />
        </mxCell>
        <mxCell id="J5OSdTNFuyauDJrTHD43-15" value="" style="edgeStyle=orthogonalEdgeStyle;rounded=0;orthogonalLoop=1;jettySize=auto;html=1;" parent="1" source="J5OSdTNFuyauDJrTHD43-12" target="J5OSdTNFuyauDJrTHD43-14" edge="1">
          <mxGeometry relative="1" as="geometry" />
        </mxCell>
        <mxCell id="J5OSdTNFuyauDJrTHD43-23" value="" style="edgeStyle=orthogonalEdgeStyle;rounded=0;orthogonalLoop=1;jettySize=auto;html=1;" parent="1" source="J5OSdTNFuyauDJrTHD43-12" target="J5OSdTNFuyauDJrTHD43-22" edge="1">
          <mxGeometry relative="1" as="geometry" />
        </mxCell>
        <mxCell id="J5OSdTNFuyauDJrTHD43-12" value="READ STUDENT ID" style="shape=parallelogram;perimeter=parallelogramPerimeter;whiteSpace=wrap;html=1;fixedSize=1;rounded=1;" parent="1" vertex="1">
          <mxGeometry x="320" y="14290" width="200" height="60" as="geometry" />
        </mxCell>
        <mxCell id="J5OSdTNFuyauDJrTHD43-17" value="" style="edgeStyle=orthogonalEdgeStyle;rounded=0;orthogonalLoop=1;jettySize=auto;html=1;" parent="1" source="J5OSdTNFuyauDJrTHD43-14" target="J5OSdTNFuyauDJrTHD43-16" edge="1">
          <mxGeometry relative="1" as="geometry" />
        </mxCell>
        <mxCell id="J5OSdTNFuyauDJrTHD43-14" value="greenColour();" style="shape=process;whiteSpace=wrap;html=1;backgroundOutline=1;rounded=1;" parent="1" vertex="1">
          <mxGeometry x="360" y="14400" width="120" height="60" as="geometry" />
        </mxCell>
        <mxCell id="J5OSdTNFuyauDJrTHD43-21" value="" style="edgeStyle=orthogonalEdgeStyle;rounded=0;orthogonalLoop=1;jettySize=auto;html=1;" parent="1" source="J5OSdTNFuyauDJrTHD43-16" target="J5OSdTNFuyauDJrTHD43-20" edge="1">
          <mxGeometry relative="1" as="geometry" />
        </mxCell>
        <mxCell id="J5OSdTNFuyauDJrTHD43-16" value="DISPLAY STUDENT ID" style="shape=parallelogram;perimeter=parallelogramPerimeter;whiteSpace=wrap;html=1;fixedSize=1;rounded=1;" parent="1" vertex="1">
          <mxGeometry x="290" y="14520" width="260" height="60" as="geometry" />
        </mxCell>
        <mxCell id="J5OSdTNFuyauDJrTHD43-69" style="edgeStyle=orthogonalEdgeStyle;rounded=0;orthogonalLoop=1;jettySize=auto;html=1;exitX=0.5;exitY=1;exitDx=0;exitDy=0;" parent="1" source="J5OSdTNFuyauDJrTHD43-20" target="J5OSdTNFuyauDJrTHD43-68" edge="1">
          <mxGeometry relative="1" as="geometry" />
        </mxCell>
        <mxCell id="J5OSdTNFuyauDJrTHD43-20" value="whiteColour();" style="shape=process;whiteSpace=wrap;html=1;backgroundOutline=1;rounded=1;" parent="1" vertex="1">
          <mxGeometry x="360" y="14660" width="120" height="60" as="geometry" />
        </mxCell>
        <mxCell id="J5OSdTNFuyauDJrTHD43-39" value="" style="edgeStyle=orthogonalEdgeStyle;rounded=0;orthogonalLoop=1;jettySize=auto;html=1;" parent="1" source="J5OSdTNFuyauDJrTHD43-22" target="J5OSdTNFuyauDJrTHD43-38" edge="1">
          <mxGeometry relative="1" as="geometry" />
        </mxCell>
        <mxCell id="J5OSdTNFuyauDJrTHD43-43" style="edgeStyle=orthogonalEdgeStyle;rounded=0;orthogonalLoop=1;jettySize=auto;html=1;exitX=1;exitY=0.5;exitDx=0;exitDy=0;entryX=0;entryY=0.5;entryDx=0;entryDy=0;" parent="1" source="J5OSdTNFuyauDJrTHD43-22" target="J5OSdTNFuyauDJrTHD43-42" edge="1">
          <mxGeometry relative="1" as="geometry" />
        </mxCell>
        <mxCell id="J5OSdTNFuyauDJrTHD43-22" value="SEARCH LOOP" style="rhombus;whiteSpace=wrap;html=1;rounded=1;" parent="1" vertex="1">
          <mxGeometry x="660" y="14280" width="190" height="80" as="geometry" />
        </mxCell>
        <mxCell id="J5OSdTNFuyauDJrTHD43-37" value="MATCH FOUND" style="text;html=1;align=center;verticalAlign=middle;resizable=0;points=[];autosize=1;strokeColor=none;fillColor=none;" parent="1" vertex="1">
          <mxGeometry x="620" y="14350" width="110" height="30" as="geometry" />
        </mxCell>
        <mxCell id="J5OSdTNFuyauDJrTHD43-38" value="DIPLAY STUDENT DETAILS" style="shape=parallelogram;perimeter=parallelogramPerimeter;whiteSpace=wrap;html=1;fixedSize=1;rounded=1;" parent="1" vertex="1">
          <mxGeometry x="630" y="14400" width="250" height="60" as="geometry" />
        </mxCell>
        <mxCell id="J5OSdTNFuyauDJrTHD43-45" value="" style="edgeStyle=orthogonalEdgeStyle;rounded=0;orthogonalLoop=1;jettySize=auto;html=1;" parent="1" source="J5OSdTNFuyauDJrTHD43-42" target="J5OSdTNFuyauDJrTHD43-44" edge="1">
          <mxGeometry relative="1" as="geometry" />
        </mxCell>
        <mxCell id="J5OSdTNFuyauDJrTHD43-51" value="" style="edgeStyle=orthogonalEdgeStyle;rounded=0;orthogonalLoop=1;jettySize=auto;html=1;" parent="1" source="J5OSdTNFuyauDJrTHD43-42" target="J5OSdTNFuyauDJrTHD43-50" edge="1">
          <mxGeometry relative="1" as="geometry" />
        </mxCell>
        <mxCell id="J5OSdTNFuyauDJrTHD43-42" value="COMPARE STUDENT ID" style="rounded=0;whiteSpace=wrap;html=1;" parent="1" vertex="1">
          <mxGeometry x="950" y="14290" width="120" height="60" as="geometry" />
        </mxCell>
        <mxCell id="J5OSdTNFuyauDJrTHD43-47" value="" style="edgeStyle=orthogonalEdgeStyle;rounded=0;orthogonalLoop=1;jettySize=auto;html=1;" parent="1" source="J5OSdTNFuyauDJrTHD43-44" target="J5OSdTNFuyauDJrTHD43-46" edge="1">
          <mxGeometry relative="1" as="geometry" />
        </mxCell>
        <mxCell id="J5OSdTNFuyauDJrTHD43-44" value="PRINT ERROR MESSAGE" style="shape=parallelogram;perimeter=parallelogramPerimeter;whiteSpace=wrap;html=1;fixedSize=1;rounded=0;" parent="1" vertex="1">
          <mxGeometry x="910" y="14400" width="200" height="60" as="geometry" />
        </mxCell>
        <mxCell id="J5OSdTNFuyauDJrTHD43-46" value="PROMPT FOR CONTINUATION" style="shape=parallelogram;perimeter=parallelogramPerimeter;whiteSpace=wrap;html=1;fixedSize=1;rounded=0;" parent="1" vertex="1">
          <mxGeometry x="890" y="14540" width="240" height="60" as="geometry" />
        </mxCell>
        <mxCell id="J5OSdTNFuyauDJrTHD43-55" value="" style="edgeStyle=orthogonalEdgeStyle;rounded=0;orthogonalLoop=1;jettySize=auto;html=1;" parent="1" source="J5OSdTNFuyauDJrTHD43-50" target="J5OSdTNFuyauDJrTHD43-54" edge="1">
          <mxGeometry relative="1" as="geometry" />
        </mxCell>
        <mxCell id="J5OSdTNFuyauDJrTHD43-81" style="edgeStyle=orthogonalEdgeStyle;rounded=0;orthogonalLoop=1;jettySize=auto;html=1;exitX=0.5;exitY=1;exitDx=0;exitDy=0;" parent="1" source="J5OSdTNFuyauDJrTHD43-50" edge="1">
          <mxGeometry relative="1" as="geometry">
            <mxPoint x="1246" y="14460" as="targetPoint" />
          </mxGeometry>
        </mxCell>
        <mxCell id="J5OSdTNFuyauDJrTHD43-50" value="DISPLAY GPA AND CGPA" style="shape=parallelogram;perimeter=parallelogramPerimeter;whiteSpace=wrap;html=1;fixedSize=1;rounded=0;" parent="1" vertex="1">
          <mxGeometry x="1150" y="14290" width="190" height="60" as="geometry" />
        </mxCell>
        <mxCell id="J5OSdTNFuyauDJrTHD43-59" value="" style="edgeStyle=orthogonalEdgeStyle;rounded=0;orthogonalLoop=1;jettySize=auto;html=1;" parent="1" source="J5OSdTNFuyauDJrTHD43-54" target="J5OSdTNFuyauDJrTHD43-58" edge="1">
          <mxGeometry relative="1" as="geometry" />
        </mxCell>
        <mxCell id="J5OSdTNFuyauDJrTHD43-54" value="GPA AND CGPA EVALUTION" style="shape=parallelogram;perimeter=parallelogramPerimeter;whiteSpace=wrap;html=1;fixedSize=1;rounded=0;" parent="1" vertex="1">
          <mxGeometry x="1420" y="14290" width="190" height="60" as="geometry" />
        </mxCell>
        <mxCell id="J5OSdTNFuyauDJrTHD43-58" value="STUDENT FOUND&lt;span style=&quot;white-space: pre;&quot;&gt;&#x9;&lt;/span&gt;" style="shape=parallelogram;perimeter=parallelogramPerimeter;whiteSpace=wrap;html=1;fixedSize=1;rounded=0;" parent="1" vertex="1">
          <mxGeometry x="1690" y="14290" width="190" height="60" as="geometry" />
        </mxCell>
        <mxCell id="J5OSdTNFuyauDJrTHD43-71" style="edgeStyle=orthogonalEdgeStyle;rounded=0;orthogonalLoop=1;jettySize=auto;html=1;exitX=0.5;exitY=1;exitDx=0;exitDy=0;entryX=0.5;entryY=0;entryDx=0;entryDy=0;" parent="1" source="J5OSdTNFuyauDJrTHD43-68" target="J5OSdTNFuyauDJrTHD43-70" edge="1">
          <mxGeometry relative="1" as="geometry" />
        </mxCell>
        <mxCell id="J5OSdTNFuyauDJrTHD43-68" value="VALIDATION LOOP" style="rounded=0;whiteSpace=wrap;html=1;" parent="1" vertex="1">
          <mxGeometry x="360" y="14790" width="120" height="60" as="geometry" />
        </mxCell>
        <mxCell id="J5OSdTNFuyauDJrTHD43-73" style="edgeStyle=orthogonalEdgeStyle;rounded=0;orthogonalLoop=1;jettySize=auto;html=1;exitX=0.5;exitY=1;exitDx=0;exitDy=0;" parent="1" source="J5OSdTNFuyauDJrTHD43-70" target="J5OSdTNFuyauDJrTHD43-72" edge="1">
          <mxGeometry relative="1" as="geometry" />
        </mxCell>
        <mxCell id="J5OSdTNFuyauDJrTHD43-77" style="edgeStyle=orthogonalEdgeStyle;rounded=0;orthogonalLoop=1;jettySize=auto;html=1;entryX=1;entryY=0.5;entryDx=0;entryDy=0;" parent="1" target="J5OSdTNFuyauDJrTHD43-70" edge="1">
          <mxGeometry relative="1" as="geometry">
            <mxPoint x="570" y="14790" as="targetPoint" />
            <mxPoint x="760" y="14940" as="sourcePoint" />
          </mxGeometry>
        </mxCell>
        <mxCell id="J5OSdTNFuyauDJrTHD43-70" value="END LOOP" style="rounded=0;whiteSpace=wrap;html=1;" parent="1" vertex="1">
          <mxGeometry x="360" y="14910" width="120" height="60" as="geometry" />
        </mxCell>
        <mxCell id="J5OSdTNFuyauDJrTHD43-72" value="END" style="rounded=1;whiteSpace=wrap;html=1;" parent="1" vertex="1">
          <mxGeometry x="360" y="15030" width="120" height="60" as="geometry" />
        </mxCell>
        <mxCell id="J5OSdTNFuyauDJrTHD43-75" value="" style="endArrow=none;html=1;rounded=0;entryX=0.5;entryY=1;entryDx=0;entryDy=0;" parent="1" target="J5OSdTNFuyauDJrTHD43-38" edge="1">
          <mxGeometry width="50" height="50" relative="1" as="geometry">
            <mxPoint x="755" y="14940" as="sourcePoint" />
            <mxPoint x="700" y="14760" as="targetPoint" />
          </mxGeometry>
        </mxCell>
        <mxCell id="J5OSdTNFuyauDJrTHD43-79" value="" style="endArrow=none;html=1;rounded=0;" parent="1" edge="1">
          <mxGeometry width="50" height="50" relative="1" as="geometry">
            <mxPoint x="1020" y="15060" as="sourcePoint" />
            <mxPoint x="1020" y="14600" as="targetPoint" />
          </mxGeometry>
        </mxCell>
        <mxCell id="J5OSdTNFuyauDJrTHD43-80" value="" style="endArrow=classic;html=1;rounded=0;entryX=1;entryY=0.5;entryDx=0;entryDy=0;" parent="1" target="J5OSdTNFuyauDJrTHD43-72" edge="1">
          <mxGeometry width="50" height="50" relative="1" as="geometry">
            <mxPoint x="1020" y="15060" as="sourcePoint" />
            <mxPoint x="800" y="14880" as="targetPoint" />
          </mxGeometry>
        </mxCell>
        <mxCell id="J5OSdTNFuyauDJrTHD43-84" value="" style="edgeStyle=orthogonalEdgeStyle;rounded=0;orthogonalLoop=1;jettySize=auto;html=1;" parent="1" source="J5OSdTNFuyauDJrTHD43-82" target="J5OSdTNFuyauDJrTHD43-83" edge="1">
          <mxGeometry relative="1" as="geometry" />
        </mxCell>
        <mxCell id="J5OSdTNFuyauDJrTHD43-82" value="COMTINUE LOOP" style="rounded=0;whiteSpace=wrap;html=1;" parent="1" vertex="1">
          <mxGeometry x="1185" y="14460" width="120" height="60" as="geometry" />
        </mxCell>
        <mxCell id="J5OSdTNFuyauDJrTHD43-85" style="edgeStyle=orthogonalEdgeStyle;rounded=0;orthogonalLoop=1;jettySize=auto;html=1;" parent="1" source="J5OSdTNFuyauDJrTHD43-83" edge="1">
          <mxGeometry relative="1" as="geometry">
            <mxPoint x="1245" y="15060" as="targetPoint" />
          </mxGeometry>
        </mxCell>
        <mxCell id="J5OSdTNFuyauDJrTHD43-83" value="NO-EXIT" style="whiteSpace=wrap;html=1;rounded=0;" parent="1" vertex="1">
          <mxGeometry x="1185" y="14600" width="120" height="60" as="geometry" />
        </mxCell>
        <mxCell id="J5OSdTNFuyauDJrTHD43-87" value="" style="endArrow=none;html=1;rounded=0;exitX=1;exitY=0.5;exitDx=0;exitDy=0;" parent="1" source="J5OSdTNFuyauDJrTHD43-72" edge="1">
          <mxGeometry width="50" height="50" relative="1" as="geometry">
            <mxPoint x="1190" y="15100" as="sourcePoint" />
            <mxPoint x="1250" y="15060" as="targetPoint" />
          </mxGeometry>
        </mxCell>
        <mxCell id="J5OSdTNFuyauDJrTHD43-88" value="void addSemester()" style="text;html=1;align=center;verticalAlign=middle;resizable=0;points=[];autosize=1;strokeColor=none;fillColor=none;" parent="1" vertex="1">
          <mxGeometry x="160" y="15250" width="130" height="30" as="geometry" />
        </mxCell>
        <mxCell id="J5OSdTNFuyauDJrTHD43-91" value="" style="edgeStyle=orthogonalEdgeStyle;rounded=0;orthogonalLoop=1;jettySize=auto;html=1;" parent="1" source="J5OSdTNFuyauDJrTHD43-89" target="J5OSdTNFuyauDJrTHD43-90" edge="1">
          <mxGeometry relative="1" as="geometry" />
        </mxCell>
        <mxCell id="J5OSdTNFuyauDJrTHD43-89" value="START" style="rounded=0;whiteSpace=wrap;html=1;" parent="1" vertex="1">
          <mxGeometry x="800" y="15260" width="120" height="60" as="geometry" />
        </mxCell>
        <mxCell id="6FSR10qx-zaeSM0o0n5l-4" value="" style="edgeStyle=orthogonalEdgeStyle;rounded=0;orthogonalLoop=1;jettySize=auto;html=1;" parent="1" source="J5OSdTNFuyauDJrTHD43-90" target="6FSR10qx-zaeSM0o0n5l-3" edge="1">
          <mxGeometry relative="1" as="geometry" />
        </mxCell>
        <mxCell id="J5OSdTNFuyauDJrTHD43-90" value="WHITE COLOUR" style="shape=process;whiteSpace=wrap;html=1;backgroundOutline=1;rounded=0;" parent="1" vertex="1">
          <mxGeometry x="800" y="15400" width="120" height="60" as="geometry" />
        </mxCell>
        <mxCell id="6FSR10qx-zaeSM0o0n5l-1" value="MATCH ERROR" style="text;html=1;align=center;verticalAlign=middle;resizable=0;points=[];autosize=1;strokeColor=none;fillColor=none;" parent="1" vertex="1">
          <mxGeometry x="885" y="14358" width="110" height="30" as="geometry" />
        </mxCell>
        <mxCell id="6FSR10qx-zaeSM0o0n5l-2" value="MATCH TRUE&lt;br&gt;" style="text;html=1;align=center;verticalAlign=middle;resizable=0;points=[];autosize=1;strokeColor=none;fillColor=none;" parent="1" vertex="1">
          <mxGeometry x="1070" y="14268" width="100" height="30" as="geometry" />
        </mxCell>
        <mxCell id="6FSR10qx-zaeSM0o0n5l-6" value="" style="edgeStyle=orthogonalEdgeStyle;rounded=0;orthogonalLoop=1;jettySize=auto;html=1;" parent="1" source="6FSR10qx-zaeSM0o0n5l-3" target="6FSR10qx-zaeSM0o0n5l-5" edge="1">
          <mxGeometry relative="1" as="geometry" />
        </mxCell>
        <mxCell id="6FSR10qx-zaeSM0o0n5l-3" value="PRINT&amp;nbsp; HEAD MENU" style="whiteSpace=wrap;html=1;rounded=0;" parent="1" vertex="1">
          <mxGeometry x="800" y="15520" width="120" height="60" as="geometry" />
        </mxCell>
        <mxCell id="6FSR10qx-zaeSM0o0n5l-5" value="READ STUDENT ID FOR ANOTHER STUDENT" style="shape=parallelogram;perimeter=parallelogramPerimeter;whiteSpace=wrap;html=1;fixedSize=1;rounded=0;" parent="1" vertex="1">
          <mxGeometry x="710" y="15640" width="300" height="60" as="geometry" />
        </mxCell>
        <mxCell id="6FSR10qx-zaeSM0o0n5l-7" value="" style="endArrow=none;html=1;rounded=0;" parent="1" edge="1">
          <mxGeometry width="50" height="50" relative="1" as="geometry">
            <mxPoint x="380" y="23064.80078125" as="sourcePoint" />
            <mxPoint x="380" y="15890" as="targetPoint" />
          </mxGeometry>
        </mxCell>
        <mxCell id="6FSR10qx-zaeSM0o0n5l-8" value="double score(int mark)" style="text;html=1;align=center;verticalAlign=middle;resizable=0;points=[];autosize=1;strokeColor=none;fillColor=none;" parent="1" vertex="1">
          <mxGeometry x="340" y="23058" width="140" height="30" as="geometry" />
        </mxCell>
        <mxCell id="6FSR10qx-zaeSM0o0n5l-13" value="" style="edgeStyle=orthogonalEdgeStyle;rounded=0;orthogonalLoop=1;jettySize=auto;html=1;" parent="1" source="6FSR10qx-zaeSM0o0n5l-11" target="6FSR10qx-zaeSM0o0n5l-12" edge="1">
          <mxGeometry relative="1" as="geometry" />
        </mxCell>
        <mxCell id="6FSR10qx-zaeSM0o0n5l-11" value="START" style="rounded=0;whiteSpace=wrap;html=1;" parent="1" vertex="1">
          <mxGeometry x="575" y="23020" width="120" height="60" as="geometry" />
        </mxCell>
        <mxCell id="6FSR10qx-zaeSM0o0n5l-17" value="" style="edgeStyle=orthogonalEdgeStyle;rounded=0;orthogonalLoop=1;jettySize=auto;html=1;" parent="1" source="6FSR10qx-zaeSM0o0n5l-12" target="6FSR10qx-zaeSM0o0n5l-16" edge="1">
          <mxGeometry relative="1" as="geometry" />
        </mxCell>
        <mxCell id="6FSR10qx-zaeSM0o0n5l-23" value="" style="edgeStyle=orthogonalEdgeStyle;rounded=0;orthogonalLoop=1;jettySize=auto;html=1;" parent="1" source="6FSR10qx-zaeSM0o0n5l-12" target="6FSR10qx-zaeSM0o0n5l-22" edge="1">
          <mxGeometry relative="1" as="geometry" />
        </mxCell>
        <mxCell id="6FSR10qx-zaeSM0o0n5l-12" value="mark &gt;= 80 &amp;&amp; mark &lt;= 100" style="rhombus;whiteSpace=wrap;html=1;rounded=0;" parent="1" vertex="1">
          <mxGeometry x="510" y="23230" width="250" height="80" as="geometry" />
        </mxCell>
        <mxCell id="6FSR10qx-zaeSM0o0n5l-70" style="edgeStyle=orthogonalEdgeStyle;rounded=0;orthogonalLoop=1;jettySize=auto;html=1;exitX=0.5;exitY=1;exitDx=0;exitDy=0;" parent="1" source="6FSR10qx-zaeSM0o0n5l-16" edge="1">
          <mxGeometry relative="1" as="geometry">
            <mxPoint x="635" y="23720" as="targetPoint" />
          </mxGeometry>
        </mxCell>
        <mxCell id="6FSR10qx-zaeSM0o0n5l-16" value="grgradepoint = 4.00" style="whiteSpace=wrap;html=1;rounded=0;" parent="1" vertex="1">
          <mxGeometry x="575" y="23400" width="120" height="60" as="geometry" />
        </mxCell>
        <mxCell id="6FSR10qx-zaeSM0o0n5l-18" value="TRUE" style="text;html=1;align=center;verticalAlign=middle;resizable=0;points=[];autosize=1;strokeColor=none;fillColor=none;" parent="1" vertex="1">
          <mxGeometry x="570" y="23308" width="60" height="30" as="geometry" />
        </mxCell>
        <mxCell id="6FSR10qx-zaeSM0o0n5l-27" value="" style="edgeStyle=orthogonalEdgeStyle;rounded=0;orthogonalLoop=1;jettySize=auto;html=1;" parent="1" source="6FSR10qx-zaeSM0o0n5l-22" target="6FSR10qx-zaeSM0o0n5l-26" edge="1">
          <mxGeometry relative="1" as="geometry" />
        </mxCell>
        <mxCell id="6FSR10qx-zaeSM0o0n5l-29" value="" style="edgeStyle=orthogonalEdgeStyle;rounded=0;orthogonalLoop=1;jettySize=auto;html=1;" parent="1" source="6FSR10qx-zaeSM0o0n5l-22" target="6FSR10qx-zaeSM0o0n5l-28" edge="1">
          <mxGeometry relative="1" as="geometry" />
        </mxCell>
        <mxCell id="6FSR10qx-zaeSM0o0n5l-22" value="mark &gt;= 75 &amp;&amp; mark &lt;= 79" style="rhombus;whiteSpace=wrap;html=1;rounded=0;" parent="1" vertex="1">
          <mxGeometry x="840" y="23230" width="250" height="80" as="geometry" />
        </mxCell>
        <mxCell id="6FSR10qx-zaeSM0o0n5l-25" value="FALSE" style="text;html=1;align=center;verticalAlign=middle;resizable=0;points=[];autosize=1;strokeColor=none;fillColor=none;" parent="1" vertex="1">
          <mxGeometry x="750" y="23228" width="60" height="30" as="geometry" />
        </mxCell>
        <mxCell id="6FSR10qx-zaeSM0o0n5l-69" style="edgeStyle=orthogonalEdgeStyle;rounded=0;orthogonalLoop=1;jettySize=auto;html=1;exitX=0.5;exitY=1;exitDx=0;exitDy=0;" parent="1" source="6FSR10qx-zaeSM0o0n5l-26" edge="1">
          <mxGeometry relative="1" as="geometry">
            <mxPoint x="965" y="23720" as="targetPoint" />
          </mxGeometry>
        </mxCell>
        <mxCell id="6FSR10qx-zaeSM0o0n5l-26" value="gradepoint = 3.75" style="whiteSpace=wrap;html=1;rounded=0;" parent="1" vertex="1">
          <mxGeometry x="905" y="23400" width="120" height="60" as="geometry" />
        </mxCell>
        <mxCell id="6FSR10qx-zaeSM0o0n5l-31" value="" style="edgeStyle=orthogonalEdgeStyle;rounded=0;orthogonalLoop=1;jettySize=auto;html=1;" parent="1" source="6FSR10qx-zaeSM0o0n5l-28" target="6FSR10qx-zaeSM0o0n5l-30" edge="1">
          <mxGeometry relative="1" as="geometry" />
        </mxCell>
        <mxCell id="6FSR10qx-zaeSM0o0n5l-33" value="" style="edgeStyle=orthogonalEdgeStyle;rounded=0;orthogonalLoop=1;jettySize=auto;html=1;" parent="1" source="6FSR10qx-zaeSM0o0n5l-28" target="6FSR10qx-zaeSM0o0n5l-32" edge="1">
          <mxGeometry relative="1" as="geometry" />
        </mxCell>
        <mxCell id="6FSR10qx-zaeSM0o0n5l-28" value="mark &gt;= 70 &amp;&amp; mark &lt;= 74" style="rhombus;whiteSpace=wrap;html=1;rounded=0;" parent="1" vertex="1">
          <mxGeometry x="1170" y="23230" width="250" height="80" as="geometry" />
        </mxCell>
        <mxCell id="6FSR10qx-zaeSM0o0n5l-68" style="edgeStyle=orthogonalEdgeStyle;rounded=0;orthogonalLoop=1;jettySize=auto;html=1;exitX=0.5;exitY=1;exitDx=0;exitDy=0;" parent="1" source="6FSR10qx-zaeSM0o0n5l-30" edge="1">
          <mxGeometry relative="1" as="geometry">
            <mxPoint x="1295" y="23720" as="targetPoint" />
          </mxGeometry>
        </mxCell>
        <mxCell id="6FSR10qx-zaeSM0o0n5l-30" value="gradepoint = 3.50" style="whiteSpace=wrap;html=1;rounded=0;" parent="1" vertex="1">
          <mxGeometry x="1235" y="23410" width="120" height="60" as="geometry" />
        </mxCell>
        <mxCell id="6FSR10qx-zaeSM0o0n5l-35" value="" style="edgeStyle=orthogonalEdgeStyle;rounded=0;orthogonalLoop=1;jettySize=auto;html=1;" parent="1" source="6FSR10qx-zaeSM0o0n5l-32" target="6FSR10qx-zaeSM0o0n5l-34" edge="1">
          <mxGeometry relative="1" as="geometry" />
        </mxCell>
        <mxCell id="6FSR10qx-zaeSM0o0n5l-37" value="" style="edgeStyle=orthogonalEdgeStyle;rounded=0;orthogonalLoop=1;jettySize=auto;html=1;" parent="1" source="6FSR10qx-zaeSM0o0n5l-32" target="6FSR10qx-zaeSM0o0n5l-36" edge="1">
          <mxGeometry relative="1" as="geometry" />
        </mxCell>
        <mxCell id="6FSR10qx-zaeSM0o0n5l-32" value="mark &gt;= 65 &amp;&amp; mark &lt;= 69)" style="rhombus;whiteSpace=wrap;html=1;rounded=0;" parent="1" vertex="1">
          <mxGeometry x="1500" y="23230" width="250" height="80" as="geometry" />
        </mxCell>
        <mxCell id="6FSR10qx-zaeSM0o0n5l-67" style="edgeStyle=orthogonalEdgeStyle;rounded=0;orthogonalLoop=1;jettySize=auto;html=1;exitX=0.5;exitY=1;exitDx=0;exitDy=0;" parent="1" source="6FSR10qx-zaeSM0o0n5l-34" edge="1">
          <mxGeometry relative="1" as="geometry">
            <mxPoint x="1625" y="23720" as="targetPoint" />
          </mxGeometry>
        </mxCell>
        <mxCell id="6FSR10qx-zaeSM0o0n5l-34" value="gradepoint = 3.00" style="whiteSpace=wrap;html=1;rounded=0;" parent="1" vertex="1">
          <mxGeometry x="1565" y="23400" width="120" height="60" as="geometry" />
        </mxCell>
        <mxCell id="6FSR10qx-zaeSM0o0n5l-39" value="" style="edgeStyle=orthogonalEdgeStyle;rounded=0;orthogonalLoop=1;jettySize=auto;html=1;" parent="1" source="6FSR10qx-zaeSM0o0n5l-36" target="6FSR10qx-zaeSM0o0n5l-38" edge="1">
          <mxGeometry relative="1" as="geometry" />
        </mxCell>
        <mxCell id="6FSR10qx-zaeSM0o0n5l-41" value="" style="edgeStyle=orthogonalEdgeStyle;rounded=0;orthogonalLoop=1;jettySize=auto;html=1;" parent="1" source="6FSR10qx-zaeSM0o0n5l-36" target="6FSR10qx-zaeSM0o0n5l-40" edge="1">
          <mxGeometry relative="1" as="geometry" />
        </mxCell>
        <mxCell id="6FSR10qx-zaeSM0o0n5l-36" value="mark &gt;= 60 &amp;&amp; mark &lt;= 64" style="rhombus;whiteSpace=wrap;html=1;rounded=0;" parent="1" vertex="1">
          <mxGeometry x="1830" y="23230" width="250" height="80" as="geometry" />
        </mxCell>
        <mxCell id="6FSR10qx-zaeSM0o0n5l-66" style="edgeStyle=orthogonalEdgeStyle;rounded=0;orthogonalLoop=1;jettySize=auto;html=1;exitX=0.5;exitY=1;exitDx=0;exitDy=0;" parent="1" source="6FSR10qx-zaeSM0o0n5l-38" edge="1">
          <mxGeometry relative="1" as="geometry">
            <mxPoint x="1955" y="23720" as="targetPoint" />
          </mxGeometry>
        </mxCell>
        <mxCell id="6FSR10qx-zaeSM0o0n5l-38" value="gradepoint = 2.75" style="whiteSpace=wrap;html=1;rounded=0;" parent="1" vertex="1">
          <mxGeometry x="1895" y="23400" width="120" height="60" as="geometry" />
        </mxCell>
        <mxCell id="6FSR10qx-zaeSM0o0n5l-43" value="" style="edgeStyle=orthogonalEdgeStyle;rounded=0;orthogonalLoop=1;jettySize=auto;html=1;" parent="1" source="6FSR10qx-zaeSM0o0n5l-40" target="6FSR10qx-zaeSM0o0n5l-42" edge="1">
          <mxGeometry relative="1" as="geometry" />
        </mxCell>
        <mxCell id="6FSR10qx-zaeSM0o0n5l-45" value="" style="edgeStyle=orthogonalEdgeStyle;rounded=0;orthogonalLoop=1;jettySize=auto;html=1;" parent="1" source="6FSR10qx-zaeSM0o0n5l-40" target="6FSR10qx-zaeSM0o0n5l-44" edge="1">
          <mxGeometry relative="1" as="geometry" />
        </mxCell>
        <mxCell id="6FSR10qx-zaeSM0o0n5l-40" value="mark &gt;= 55 &amp;&amp; mark &lt;= 59" style="rhombus;whiteSpace=wrap;html=1;rounded=0;" parent="1" vertex="1">
          <mxGeometry x="2160" y="23230" width="250" height="80" as="geometry" />
        </mxCell>
        <mxCell id="6FSR10qx-zaeSM0o0n5l-61" style="edgeStyle=orthogonalEdgeStyle;rounded=0;orthogonalLoop=1;jettySize=auto;html=1;exitX=0.5;exitY=1;exitDx=0;exitDy=0;entryX=0.5;entryY=0;entryDx=0;entryDy=0;" parent="1" source="6FSR10qx-zaeSM0o0n5l-42" target="6FSR10qx-zaeSM0o0n5l-60" edge="1">
          <mxGeometry relative="1" as="geometry" />
        </mxCell>
        <mxCell id="6FSR10qx-zaeSM0o0n5l-42" value="gradepoint = 2.50" style="whiteSpace=wrap;html=1;rounded=0;" parent="1" vertex="1">
          <mxGeometry x="2225" y="23400" width="120" height="60" as="geometry" />
        </mxCell>
        <mxCell id="6FSR10qx-zaeSM0o0n5l-47" value="" style="edgeStyle=orthogonalEdgeStyle;rounded=0;orthogonalLoop=1;jettySize=auto;html=1;" parent="1" source="6FSR10qx-zaeSM0o0n5l-44" target="6FSR10qx-zaeSM0o0n5l-46" edge="1">
          <mxGeometry relative="1" as="geometry" />
        </mxCell>
        <mxCell id="6FSR10qx-zaeSM0o0n5l-49" value="" style="edgeStyle=orthogonalEdgeStyle;rounded=0;orthogonalLoop=1;jettySize=auto;html=1;" parent="1" source="6FSR10qx-zaeSM0o0n5l-44" target="6FSR10qx-zaeSM0o0n5l-48" edge="1">
          <mxGeometry relative="1" as="geometry" />
        </mxCell>
        <mxCell id="6FSR10qx-zaeSM0o0n5l-44" value="mark &gt;= 50 &amp;&amp; mark &lt;= 54" style="rhombus;whiteSpace=wrap;html=1;rounded=0;" parent="1" vertex="1">
          <mxGeometry x="2490" y="23230" width="250" height="80" as="geometry" />
        </mxCell>
        <mxCell id="6FSR10qx-zaeSM0o0n5l-62" style="edgeStyle=orthogonalEdgeStyle;rounded=0;orthogonalLoop=1;jettySize=auto;html=1;exitX=0.5;exitY=1;exitDx=0;exitDy=0;" parent="1" source="6FSR10qx-zaeSM0o0n5l-46" edge="1">
          <mxGeometry relative="1" as="geometry">
            <mxPoint x="2615" y="23720" as="targetPoint" />
          </mxGeometry>
        </mxCell>
        <mxCell id="6FSR10qx-zaeSM0o0n5l-46" value="gradepoint = 2.00" style="rounded=0;whiteSpace=wrap;html=1;" parent="1" vertex="1">
          <mxGeometry x="2555" y="23400" width="120" height="60" as="geometry" />
        </mxCell>
        <mxCell id="6FSR10qx-zaeSM0o0n5l-51" value="" style="edgeStyle=orthogonalEdgeStyle;rounded=0;orthogonalLoop=1;jettySize=auto;html=1;" parent="1" source="6FSR10qx-zaeSM0o0n5l-48" target="6FSR10qx-zaeSM0o0n5l-50" edge="1">
          <mxGeometry relative="1" as="geometry" />
        </mxCell>
        <mxCell id="6FSR10qx-zaeSM0o0n5l-53" value="" style="edgeStyle=orthogonalEdgeStyle;rounded=0;orthogonalLoop=1;jettySize=auto;html=1;" parent="1" source="6FSR10qx-zaeSM0o0n5l-48" target="6FSR10qx-zaeSM0o0n5l-52" edge="1">
          <mxGeometry relative="1" as="geometry" />
        </mxCell>
        <mxCell id="6FSR10qx-zaeSM0o0n5l-48" value="mark &gt;= 45 &amp;&amp; mark &lt;= 49" style="rhombus;whiteSpace=wrap;html=1;rounded=0;" parent="1" vertex="1">
          <mxGeometry x="2820" y="23230" width="250" height="80" as="geometry" />
        </mxCell>
        <mxCell id="6FSR10qx-zaeSM0o0n5l-63" style="edgeStyle=orthogonalEdgeStyle;rounded=0;orthogonalLoop=1;jettySize=auto;html=1;exitX=0.5;exitY=1;exitDx=0;exitDy=0;" parent="1" source="6FSR10qx-zaeSM0o0n5l-50" edge="1">
          <mxGeometry relative="1" as="geometry">
            <mxPoint x="2945" y="23720" as="targetPoint" />
          </mxGeometry>
        </mxCell>
        <mxCell id="6FSR10qx-zaeSM0o0n5l-50" value="gradepoint = 1.75" style="whiteSpace=wrap;html=1;rounded=0;" parent="1" vertex="1">
          <mxGeometry x="2885" y="23400" width="120" height="60" as="geometry" />
        </mxCell>
        <mxCell id="6FSR10qx-zaeSM0o0n5l-55" value="" style="edgeStyle=orthogonalEdgeStyle;rounded=0;orthogonalLoop=1;jettySize=auto;html=1;" parent="1" source="6FSR10qx-zaeSM0o0n5l-52" target="6FSR10qx-zaeSM0o0n5l-54" edge="1">
          <mxGeometry relative="1" as="geometry" />
        </mxCell>
        <mxCell id="6FSR10qx-zaeSM0o0n5l-59" value="" style="edgeStyle=orthogonalEdgeStyle;rounded=0;orthogonalLoop=1;jettySize=auto;html=1;" parent="1" source="6FSR10qx-zaeSM0o0n5l-52" target="6FSR10qx-zaeSM0o0n5l-58" edge="1">
          <mxGeometry relative="1" as="geometry" />
        </mxCell>
        <mxCell id="6FSR10qx-zaeSM0o0n5l-52" value="mark &gt;= 40 &amp;&amp; mark &lt;= 44" style="rhombus;whiteSpace=wrap;html=1;rounded=0;" parent="1" vertex="1">
          <mxGeometry x="3150" y="23230" width="250" height="80" as="geometry" />
        </mxCell>
        <mxCell id="6FSR10qx-zaeSM0o0n5l-64" style="edgeStyle=orthogonalEdgeStyle;rounded=0;orthogonalLoop=1;jettySize=auto;html=1;exitX=0.5;exitY=1;exitDx=0;exitDy=0;" parent="1" source="6FSR10qx-zaeSM0o0n5l-54" edge="1">
          <mxGeometry relative="1" as="geometry">
            <mxPoint x="3275" y="23720" as="targetPoint" />
          </mxGeometry>
        </mxCell>
        <mxCell id="6FSR10qx-zaeSM0o0n5l-54" value="gradepoint = 1.00" style="whiteSpace=wrap;html=1;rounded=0;" parent="1" vertex="1">
          <mxGeometry x="3215" y="23400" width="120" height="60" as="geometry" />
        </mxCell>
        <mxCell id="6FSR10qx-zaeSM0o0n5l-65" style="edgeStyle=orthogonalEdgeStyle;rounded=0;orthogonalLoop=1;jettySize=auto;html=1;exitX=0.5;exitY=1;exitDx=0;exitDy=0;" parent="1" source="6FSR10qx-zaeSM0o0n5l-58" edge="1">
          <mxGeometry relative="1" as="geometry">
            <mxPoint x="3605" y="23720" as="targetPoint" />
          </mxGeometry>
        </mxCell>
        <mxCell id="6FSR10qx-zaeSM0o0n5l-58" value="gradepoint = 0.00" style="whiteSpace=wrap;html=1;rounded=0;" parent="1" vertex="1">
          <mxGeometry x="3545" y="23240" width="120" height="60" as="geometry" />
        </mxCell>
        <mxCell id="6FSR10qx-zaeSM0o0n5l-60" value="END" style="rounded=1;whiteSpace=wrap;html=1;" parent="1" vertex="1">
          <mxGeometry x="2225" y="23660" width="120" height="60" as="geometry" />
        </mxCell>
        <mxCell id="6FSR10qx-zaeSM0o0n5l-72" value="" style="endArrow=classic;html=1;rounded=0;entryX=0;entryY=1;entryDx=0;entryDy=0;" parent="1" target="6FSR10qx-zaeSM0o0n5l-60" edge="1">
          <mxGeometry width="50" height="50" relative="1" as="geometry">
            <mxPoint x="1950" y="23720" as="sourcePoint" />
            <mxPoint x="2000" y="23670" as="targetPoint" />
          </mxGeometry>
        </mxCell>
        <mxCell id="6FSR10qx-zaeSM0o0n5l-73" value="" style="endArrow=classic;html=1;rounded=0;" parent="1" edge="1">
          <mxGeometry width="50" height="50" relative="1" as="geometry">
            <mxPoint x="1630" y="23720" as="sourcePoint" />
            <mxPoint x="1960" y="23720" as="targetPoint" />
            <Array as="points">
              <mxPoint x="1820" y="23720" />
            </Array>
          </mxGeometry>
        </mxCell>
        <mxCell id="6FSR10qx-zaeSM0o0n5l-74" value="" style="endArrow=none;html=1;rounded=0;" parent="1" edge="1">
          <mxGeometry width="50" height="50" relative="1" as="geometry">
            <mxPoint x="970" y="23720" as="sourcePoint" />
            <mxPoint x="1630" y="23720" as="targetPoint" />
          </mxGeometry>
        </mxCell>
        <mxCell id="6FSR10qx-zaeSM0o0n5l-75" value="" style="endArrow=none;html=1;rounded=0;" parent="1" edge="1">
          <mxGeometry width="50" height="50" relative="1" as="geometry">
            <mxPoint x="630" y="23720" as="sourcePoint" />
            <mxPoint x="3602.1334635416665" y="23720" as="targetPoint" />
          </mxGeometry>
        </mxCell>
        <mxCell id="6FSR10qx-zaeSM0o0n5l-76" value="" style="endArrow=classic;html=1;rounded=0;" parent="1" edge="1">
          <mxGeometry width="50" height="50" relative="1" as="geometry">
            <mxPoint x="2610" y="23720" as="sourcePoint" />
            <mxPoint x="2340" y="23720" as="targetPoint" />
          </mxGeometry>
        </mxCell>
        <mxCell id="6FSR10qx-zaeSM0o0n5l-77" value="TRUE" style="text;html=1;align=center;verticalAlign=middle;resizable=0;points=[];autosize=1;strokeColor=none;fillColor=none;" parent="1" vertex="1">
          <mxGeometry x="880" y="23318" width="60" height="30" as="geometry" />
        </mxCell>
        <mxCell id="6FSR10qx-zaeSM0o0n5l-78" value="FALSE" style="text;html=1;align=center;verticalAlign=middle;resizable=0;points=[];autosize=1;strokeColor=none;fillColor=none;" parent="1" vertex="1">
          <mxGeometry x="1090" y="23228" width="60" height="30" as="geometry" />
        </mxCell>
        <mxCell id="6FSR10qx-zaeSM0o0n5l-79" value="TRUE" style="text;html=1;align=center;verticalAlign=middle;resizable=0;points=[];autosize=1;strokeColor=none;fillColor=none;" parent="1" vertex="1">
          <mxGeometry x="1190" y="23328" width="60" height="30" as="geometry" />
        </mxCell>
        <mxCell id="6FSR10qx-zaeSM0o0n5l-80" value="FALSE" style="text;html=1;align=center;verticalAlign=middle;resizable=0;points=[];autosize=1;strokeColor=none;fillColor=none;" parent="1" vertex="1">
          <mxGeometry x="1440" y="23208" width="60" height="30" as="geometry" />
        </mxCell>
        <mxCell id="6FSR10qx-zaeSM0o0n5l-81" value="TRUE" style="text;html=1;align=center;verticalAlign=middle;resizable=0;points=[];autosize=1;strokeColor=none;fillColor=none;" parent="1" vertex="1">
          <mxGeometry x="1540" y="23328" width="60" height="30" as="geometry" />
        </mxCell>
        <mxCell id="6FSR10qx-zaeSM0o0n5l-82" value="FALSE" style="text;html=1;align=center;verticalAlign=middle;resizable=0;points=[];autosize=1;strokeColor=none;fillColor=none;" parent="1" vertex="1">
          <mxGeometry x="1770" y="23220" width="60" height="30" as="geometry" />
        </mxCell>
        <mxCell id="6FSR10qx-zaeSM0o0n5l-85" value="TRUE" style="text;html=1;align=center;verticalAlign=middle;resizable=0;points=[];autosize=1;strokeColor=none;fillColor=none;" parent="1" vertex="1">
          <mxGeometry x="1870" y="23338" width="60" height="30" as="geometry" />
        </mxCell>
        <mxCell id="6FSR10qx-zaeSM0o0n5l-86" value="TRUE" style="text;html=1;align=center;verticalAlign=middle;resizable=0;points=[];autosize=1;strokeColor=none;fillColor=none;" parent="1" vertex="1">
          <mxGeometry x="2210" y="23338" width="60" height="30" as="geometry" />
        </mxCell>
        <mxCell id="6FSR10qx-zaeSM0o0n5l-87" value="TRUE" style="text;html=1;align=center;verticalAlign=middle;resizable=0;points=[];autosize=1;strokeColor=none;fillColor=none;" parent="1" vertex="1">
          <mxGeometry x="2530" y="23338" width="60" height="30" as="geometry" />
        </mxCell>
        <mxCell id="6FSR10qx-zaeSM0o0n5l-88" value="TRUE" style="text;html=1;align=center;verticalAlign=middle;resizable=0;points=[];autosize=1;strokeColor=none;fillColor=none;" parent="1" vertex="1">
          <mxGeometry x="2850" y="23338" width="60" height="30" as="geometry" />
        </mxCell>
        <mxCell id="6FSR10qx-zaeSM0o0n5l-89" value="TRUE" style="text;html=1;align=center;verticalAlign=middle;resizable=0;points=[];autosize=1;strokeColor=none;fillColor=none;" parent="1" vertex="1">
          <mxGeometry x="3200" y="23328" width="60" height="30" as="geometry" />
        </mxCell>
        <mxCell id="6FSR10qx-zaeSM0o0n5l-90" value="FALSE" style="text;html=1;align=center;verticalAlign=middle;resizable=0;points=[];autosize=1;strokeColor=none;fillColor=none;" parent="1" vertex="1">
          <mxGeometry x="2110" y="23220" width="60" height="30" as="geometry" />
        </mxCell>
        <mxCell id="6FSR10qx-zaeSM0o0n5l-91" value="FALSE" style="text;html=1;align=center;verticalAlign=middle;resizable=0;points=[];autosize=1;strokeColor=none;fillColor=none;" parent="1" vertex="1">
          <mxGeometry x="2420" y="23228" width="60" height="30" as="geometry" />
        </mxCell>
        <mxCell id="6FSR10qx-zaeSM0o0n5l-92" value="FALSE" style="text;html=1;align=center;verticalAlign=middle;resizable=0;points=[];autosize=1;strokeColor=none;fillColor=none;" parent="1" vertex="1">
          <mxGeometry x="2750" y="23220" width="60" height="30" as="geometry" />
        </mxCell>
        <mxCell id="6FSR10qx-zaeSM0o0n5l-93" value="FALSE" style="text;html=1;align=center;verticalAlign=middle;resizable=0;points=[];autosize=1;strokeColor=none;fillColor=none;" parent="1" vertex="1">
          <mxGeometry x="3080" y="23230" width="60" height="30" as="geometry" />
        </mxCell>
        <mxCell id="6FSR10qx-zaeSM0o0n5l-94" value="FALSE" style="text;html=1;align=center;verticalAlign=middle;resizable=0;points=[];autosize=1;strokeColor=none;fillColor=none;" parent="1" vertex="1">
          <mxGeometry x="3450" y="23230" width="60" height="30" as="geometry" />
        </mxCell>
        <mxCell id="6FSR10qx-zaeSM0o0n5l-97" value="READ MARK" style="shape=parallelogram;perimeter=parallelogramPerimeter;whiteSpace=wrap;html=1;fixedSize=1;" parent="1" vertex="1">
          <mxGeometry x="530" y="23148" width="230" height="60" as="geometry" />
        </mxCell>
        <mxCell id="6FSR10qx-zaeSM0o0n5l-101" value="int studentIdValidation(char stID[])" style="text;html=1;align=center;verticalAlign=middle;resizable=0;points=[];autosize=1;strokeColor=none;fillColor=none;" parent="1" vertex="1">
          <mxGeometry x="490" y="23888" width="200" height="30" as="geometry" />
        </mxCell>
        <mxCell id="6FSR10qx-zaeSM0o0n5l-141" value="char grade(double gpa)" style="text;html=1;align=center;verticalAlign=middle;resizable=0;points=[];autosize=1;strokeColor=none;fillColor=none;" parent="1" vertex="1">
          <mxGeometry x="1275" y="24768" width="150" height="30" as="geometry" />
        </mxCell>
        <mxCell id="6FSR10qx-zaeSM0o0n5l-142" value="" style="rounded=1;whiteSpace=wrap;html=1;" parent="1" vertex="1">
          <mxGeometry x="1720" y="24810" width="120" height="60" as="geometry" />
        </mxCell>
        <mxCell id="vP4k-0A4hTPR3WqXUE7M-1" value="CHECK STUDENT ID" style="rounded=1;whiteSpace=wrap;html=1;" vertex="1" parent="1">
          <mxGeometry x="1070" y="23930" width="120" height="60" as="geometry" />
        </mxCell>
      </root>
    </mxGraphModel>
  </diagram>
</mxfile>
